<?xml version="1.0" encoding="UTF-8"?>
<svg version="1.1" xmlns="http://www.w3.org/2000/svg" width="151" height="175">
<path d="M0 0 C49.83 0 99.66 0 151 0 C151 57.75 151 115.5 151 175 C101.17 175 51.34 175 0 175 C0 117.25 0 59.5 0 0 Z " fill="#FDFDFD" transform="translate(0,0)"/>
<path d="M0 0 C8.91960031 -0.0465872 17.83915795 -0.08200207 26.75885391 -0.10362434 C30.90178004 -0.11400821 35.04462219 -0.12806729 39.1875 -0.15087891 C43.19458579 -0.17280172 47.20159141 -0.18460907 51.2087326 -0.18975449 C52.72834279 -0.19341569 54.24794919 -0.20056375 55.76752472 -0.21146011 C71.13550357 -0.3171553 86.06714687 0.55117247 98.30078125 10.95703125 C106.78289978 20.16566957 108.50735904 29.81630271 108.2734375 41.984375 C107.84255143 51.12257274 103.29416711 58.55542081 97 65 C91.6654619 69.50489337 86.74871589 73.02790828 80 75 C82.73418947 80.69835749 85.77060178 85.97849842 89.25 91.25 C89.73452637 91.99016357 90.21905273 92.73032715 90.71826172 93.49291992 C91.69195166 94.97823967 92.66765521 96.46224163 93.64550781 97.94482422 C94.82976375 99.74169993 96.0054523 101.54421617 97.1796875 103.34765625 C107.03147575 118.36273112 116.62261305 132.81130652 133 141 C133 142.98 133 144.96 133 147 C114.05860793 147.58716141 114.05860793 147.58716141 107 144 C106.3296875 143.6596875 105.659375 143.319375 104.96875 142.96875 C91.80341804 135.47463796 84.614002 121.9535206 76.98046875 109.421875 C76.62779938 108.84412323 76.27513 108.26637146 75.91177368 107.67111206 C74.13699203 104.76207714 72.37103421 101.84836667 70.62109375 98.92431641 C69.63882813 97.30275635 69.63882813 97.30275635 68.63671875 95.6484375 C68.05623779 94.68083496 67.47575684 93.71323242 66.87768555 92.71630859 C64.85385023 89.78857596 62.53485828 87.48757897 60 85 C58.875 82.5625 58.875 82.5625 59 80 C61.73511587 75.40891265 64.64463702 73.5292754 69.375 71.125 C77.60410554 66.83877679 82.48423714 61.13368068 85.33984375 52.2578125 C87.3787052 42.19621223 87.51555201 30.95869246 82 22 C76.98488132 14.55527719 70.72980926 10.82045518 62 9 C59.95353942 8.88578023 57.90393036 8.82383641 55.85449219 8.79467773 C54.61350769 8.77473251 53.37252319 8.75478729 52.09393311 8.73423767 C50.744915 8.71725607 49.39589559 8.70037717 48.046875 8.68359375 C46.66253049 8.66301124 45.27819208 8.64201443 43.89385986 8.62062073 C40.257456 8.56553393 36.62099667 8.51606586 32.98449707 8.46777344 C29.27086475 8.41746036 25.55731256 8.36182558 21.84375 8.30664062 C14.56256794 8.19922296 7.28131906 8.09774192 0 8 C0 5.36 0 2.72 0 0 Z " fill="#050949" transform="translate(10,24)"/>
<path d="M0 0 C8.91960031 -0.0465872 17.83915795 -0.08200207 26.75885391 -0.10362434 C30.90178004 -0.11400821 35.04462219 -0.12806729 39.1875 -0.15087891 C43.19458579 -0.17280172 47.20159141 -0.18460907 51.2087326 -0.18975449 C52.72834279 -0.19341569 54.24794919 -0.20056375 55.76752472 -0.21146011 C71.13550357 -0.3171553 86.06714687 0.55117247 98.30078125 10.95703125 C102.06471165 15.04335398 107 21.24635875 107 27 C106.34 27 105.68 27 105 27 C103.92474806 24.34771188 102.90543849 21.71631546 102 19 C100.35 19 98.7 19 97 19 C96.938125 18.236875 96.87625 17.47375 96.8125 16.6875 C96.23326475 13.81971794 96.23326475 13.81971794 93.6875 12.25 C91.41916543 11.19496066 89.44852134 10.45342988 87 10 C87.061875 11.010625 87.12375 12.02125 87.1875 13.0625 C86.97357173 17.55499372 85.95386468 20.01085961 84 24 C83.484375 23.29875 82.96875 22.5975 82.4375 21.875 C75.90994704 14.17583497 68.8612402 9.7825533 58.62539673 8.6151123 C54.86681197 8.44538616 51.12566892 8.3941825 47.36328125 8.390625 C45.9889281 8.37560698 44.61459275 8.35887238 43.24028015 8.34051514 C39.66145905 8.29723431 36.08288115 8.27693116 32.50384521 8.26177979 C28.83640388 8.2420651 25.16921989 8.2001125 21.50195312 8.16015625 C14.33470529 8.08528103 7.1675669 8.03473323 0 8 C0 5.36 0 2.72 0 0 Z " fill="#080A42" transform="translate(10,24)"/>
<path d="M0 0 C3.12824432 1.32081427 4.56971762 2.31545986 6.375 5.1875 C7.22697314 9.02137913 7.18532412 12.23993211 6 16 C3.82070563 18.72411796 2.27570513 19.7573387 -1.15625 20.41015625 C-5.34224779 20.68224611 -7.45185331 20.36543112 -11 18 C-13.44343509 14.33484737 -14.6135967 11.42481 -14 7 C-10.5956117 0.80534834 -6.79983246 -0.46100559 0 0 Z " fill="#141545" transform="translate(54,91)"/>
<path d="M0 0 C7.71939643 -0.02321599 15.43878922 -0.04096219 23.15821266 -0.05181217 C26.74302025 -0.05702078 30.32780386 -0.06408157 33.91259766 -0.07543945 C37.3750062 -0.08634037 40.83739175 -0.09229206 44.29981613 -0.09487724 C46.25730905 -0.09761189 48.21479278 -0.10541244 50.17227173 -0.11329651 C51.97345963 -0.11340981 51.97345963 -0.11340981 53.81103516 -0.11352539 C55.38988998 -0.11685631 55.38988998 -0.11685631 57.00064087 -0.12025452 C60.07464692 0.00299285 62.97946798 0.43026168 66 1 C66.495 2.485 66.495 2.485 67 4 C63.81062161 4.99280967 61.34591688 4.97236982 58.04174805 4.58227539 C51.80070451 3.93795988 45.60256541 3.77864393 39.33203125 3.68359375 C38.17120529 3.66281265 37.01037933 3.64203156 35.81437683 3.62062073 C32.1471382 3.55582394 28.47983491 3.4965689 24.8125 3.4375 C22.30923841 3.39424815 19.80598308 3.35063186 17.30273438 3.30664062 C11.20188902 3.20021539 5.10098098 3.09832622 -1 3 C-0.67 2.01 -0.34 1.02 0 0 Z " fill="#04074D" transform="translate(14,26)"/>
<path d="M0 0 C32.67 0.495 32.67 0.495 66 1 C66 1.33 66 1.66 66 2 C45.54 2 25.08 2 4 2 C4 2.66 4 3.32 4 4 C4.64701874 4.00586624 5.29403748 4.01173248 5.96066284 4.01777649 C12.67637916 4.08155918 19.3916095 4.16593877 26.10693359 4.26245117 C28.61533209 4.29576863 31.12380678 4.32377902 33.63232422 4.34643555 C37.23177667 4.37985599 40.83052639 4.43216586 44.4296875 4.48828125 C45.55680145 4.49467117 46.68391541 4.5010611 47.84518433 4.50764465 C49.40657639 4.53733589 49.40657639 4.53733589 50.99951172 4.56762695 C51.91884491 4.57873001 52.8381781 4.58983307 53.78536987 4.60127258 C54.51619781 4.73285263 55.24702576 4.86443268 56 5 C56.66 5.99 57.32 6.98 58 8 C38.86 8 19.72 8 0 8 C0 5.36 0 2.72 0 0 Z " fill="#1D214D" transform="translate(10,24)"/>
<path d="M0 0 C2.00451121 0.30503431 4.00448218 0.64080679 6 1 C6.99 1 7.98 1 9 1 C9 1.66 9 2.32 9 3 C9.66 3 10.32 3 11 3 C11.625 6.375 11.625 6.375 12 10 C10 12 10 12 7.9375 12.5 C7.298125 12.665 6.65875 12.83 6 13 C5.67 13.66 5.34 14.32 5 15 C2.9375 15.625 2.9375 15.625 1 16 C0.87625 15.071875 0.87625 15.071875 0.75 14.125 C0.19884128 11.81418662 0.19884128 11.81418662 -2.046875 10.8671875 C-2.69140625 10.58101562 -3.3359375 10.29484375 -4 10 C-3.52449439 8.51965236 -3.04448784 7.04074979 -2.5625 5.5625 C-2.29566406 4.73878906 -2.02882812 3.91507812 -1.75390625 3.06640625 C-1 1 -1 1 0 0 Z " fill="#05084A" transform="translate(49,94)"/>
<path d="M0 0 C0.99 0 1.98 0 3 0 C3.90566038 20.27672956 3.90566038 20.27672956 -3.25 28.625 C-4.11625 29.305625 -4.11625 29.305625 -5 30 C-5.66 29.67 -6.32 29.34 -7 29 C-6.55090939 27.51800098 -6.09043436 26.03944764 -5.625 24.5625 C-5.36976562 23.73878906 -5.11453125 22.91507813 -4.8515625 22.06640625 C-4 20 -4 20 -2 19 C-1.53205677 17.06643337 -1.53205677 17.06643337 -1.3671875 14.74609375 C-1.24150391 13.46508789 -1.24150391 13.46508789 -1.11328125 12.15820312 C-1.03464844 11.26037109 -0.95601563 10.36253906 -0.875 9.4375 C-0.78863281 8.53580078 -0.70226562 7.63410156 -0.61328125 6.70507812 C-0.40048341 4.47070082 -0.19645533 2.23586385 0 0 Z " fill="#0E123E" transform="translate(115,54)"/>
<path d="M0 0 C8.03198028 -0.02316114 16.06394662 -0.04093436 24.09595203 -0.05181217 C27.82545462 -0.05703273 31.55493438 -0.0641154 35.28442383 -0.07543945 C38.88297945 -0.08629767 42.4815131 -0.09228308 46.08008385 -0.09487724 C47.45361362 -0.09672619 48.82714218 -0.10033666 50.20066261 -0.10573006 C52.12310236 -0.11297928 54.04556417 -0.11340839 55.96801758 -0.11352539 C57.06277908 -0.115746 58.15754059 -0.11796661 59.28547668 -0.12025452 C62 0 62 0 65 1 C65 1.66 65 2.32 65 3 C63.7625 3.020625 62.525 3.04125 61.25 3.0625 C60.55390625 3.07410156 59.8578125 3.08570313 59.140625 3.09765625 C57 3 57 3 55.19866943 2.50672913 C52.644994 1.91818148 50.30139887 1.83835665 47.68066406 1.79467773 C46.61986633 1.77473251 45.5590686 1.75478729 44.46612549 1.73423767 C42.75812775 1.70916893 42.75812775 1.70916893 41.015625 1.68359375 C39.84489441 1.66281265 38.67416382 1.64203156 37.46795654 1.62062073 C33.72869731 1.55524372 29.98936795 1.49629509 26.25 1.4375 C23.7148365 1.39430353 21.17968009 1.35068888 18.64453125 1.30664062 C12.4297616 1.19957441 6.21492222 1.0977859 0 1 C0 0.67 0 0.34 0 0 Z " fill="#080D34" transform="translate(15,30)"/>
<path d="M0 0 C2.84327057 3.46247171 5.41083778 7.00922362 7.875 10.75 C8.56335938 11.7915625 9.25171875 12.833125 9.9609375 13.90625 C10.63382813 14.9271875 11.30671875 15.948125 12 17 C13.16553153 18.75075623 14.33205627 20.50085205 15.5 22.25 C16.33333333 23.5 17.16666667 24.75 18 26 C16.02 25.67 14.04 25.34 12 25 C12 24.01 12 23.02 12 22 C11.01 21.67 10.02 21.34 9 21 C8.27544365 19.35767228 7.62225605 17.68375165 7 16 C4.65342007 11.33569889 4.65342007 11.33569889 1.25 7.4375 C-0.73559696 5.1540635 -0.19291348 2.89370226 0 0 Z " fill="#131743" transform="translate(101,119)"/>
<path d="M0 0 C1.18613892 0.07069702 1.18613892 0.07069702 2.39624023 0.14282227 C3.67724609 0.21533203 3.67724609 0.21533203 4.98413086 0.28930664 C5.88196289 0.34538086 6.77979492 0.40145508 7.70483398 0.45922852 C8.6065332 0.51143555 9.50823242 0.56364258 10.43725586 0.61743164 C12.67259948 0.74753101 14.90754288 0.88250788 17.14233398 1.02172852 C16.81233398 2.34172852 16.48233398 3.66172852 16.14233398 5.02172852 C10.20233398 5.02172852 4.26233398 5.02172852 -1.85766602 5.02172852 C-2.18766602 3.70172852 -2.51766602 2.38172852 -2.85766602 1.02172852 C-1.85766602 0.02172852 -1.85766602 0.02172852 0 0 Z " fill="#EEF1F3" transform="translate(125.857666015625,169.978271484375)"/>
<path d="M0 0 C8.4113036 4.2056518 13.56390555 10.20764067 17 19 C17 19.66 17 20.32 17 21 C16.34 21 15.68 21 15 21 C13.92474806 18.34771188 12.90543849 15.71631546 12 13 C10.35 13 8.7 13 7 13 C6.938125 12.236875 6.87625 11.47375 6.8125 10.6875 C6.22991385 7.78203545 6.22991385 7.78203545 3.5 6.1875 C1.31073687 4.92849053 1.31073687 4.92849053 0 5 C0 3.35 0 1.7 0 0 Z " fill="#141742" transform="translate(100,30)"/>
<path d="M0 0 C0.928125 0.20625 1.85625 0.4125 2.8125 0.625 C2.8125 2.605 2.8125 4.585 2.8125 6.625 C-0.8175 6.625 -4.4475 6.625 -8.1875 6.625 C-5.2886236 -0.62219101 -5.2886236 -0.62219101 0 0 Z " fill="#03083A" transform="translate(140.1875,164.375)"/>
<path d="M0 0 C3.66786393 1.50349377 5.68910393 3.63728792 8.25 6.625 C8.95640625 7.44226563 9.6628125 8.25953125 10.390625 9.1015625 C10.92171875 9.72804687 11.4528125 10.35453125 12 11 C11.67 11.99 11.34 12.98 11 14 C8.08629975 12.69385851 6.11981507 11.38479195 4 9 C3.278125 8.195625 2.55625 7.39125 1.8125 6.5625 C0 4 0 4 0 0 Z " fill="#0F103E" transform="translate(118,146)"/>
<path d="M0 0 C0.66 0 1.32 0 2 0 C1.8125 1.75 1.8125 1.75 1 4 C-0.2065625 4.9590625 -0.2065625 4.9590625 -1.4375 5.9375 C-4.20888019 8.16812308 -4.97727833 9.6529109 -6 13 C-6.33 13 -6.66 13 -7 13 C-7 9.37 -7 5.74 -7 2 C-5.35 2 -3.7 2 -2 2 C-1.34 1.34 -0.68 0.68 0 0 Z " fill="#E7EAF2" transform="translate(75,94)"/>
<path d="M0 0 C1.70884005 1.62339805 3.37446717 3.29319053 5 5 C5 5.66 5 6.32 5 7 C5.99 7.33 6.98 7.66 8 8 C6.68 8.99 5.36 9.98 4 11 C2.02 8.36 0.04 5.72 -2 3 C-1.34 2.01 -0.68 1.02 0 0 Z " fill="#111247" transform="translate(100,147)"/>
<path d="M0 0 C0.66 1.32 1.32 2.64 2 4 C-0.99481865 8.22797927 -0.99481865 8.22797927 -3 10 C-6.3125 10.375 -6.3125 10.375 -9 10 C-8.2575 9.278125 -7.515 8.55625 -6.75 7.8125 C-4.30709485 5.31407427 -2.1318953 2.76356798 0 0 Z " fill="#E9ECF0" transform="translate(111,83)"/>
<path d="M0 0 C2.68921112 0.27225484 3.73238869 0.67957066 5.484375 2.77734375 C5.90203125 3.49019531 6.3196875 4.20304687 6.75 4.9375 C7.17796875 5.64777344 7.6059375 6.35804687 8.046875 7.08984375 C9 9 9 9 9 11 C7 11 7 11 4.375 8.625 C2 6 2 6 2 4 C0.54166642 2.37485532 0.54166642 2.37485532 -1 1 C-0.67 0.67 -0.34 0.34 0 0 Z " fill="#111440" transform="translate(89,104)"/>
<path d="M0 0 C3.68006822 3.38168431 5.9785845 6.42521756 8 11 C7.01 11 6.02 11 5 11 C4.67 9.68 4.34 8.36 4 7 C3.01 7 2.02 7 1 7 C0.67 4.69 0.34 2.38 0 0 Z " fill="#E4E5EF" transform="translate(71,109)"/>
<path d="M0 0 C2.31 1.98 4.62 3.96 7 6 C6.01 7.485 6.01 7.485 5 9 C4.01 8.67 3.02 8.34 2 8 C2 7.34 2 6.68 2 6 C1.01 6 0.02 6 -1 6 C-0.67 4.02 -0.34 2.04 0 0 Z " fill="#F2F4F8" transform="translate(84,37)"/>
<path d="M0 0 C0 0.99 0 1.98 0 3 C0.99 3 1.98 3 3 3 C2.67 4.32 2.34 5.64 2 7 C-1.81684226 5.44499019 -4.19195732 2.96404505 -7 0 C-4.3333581 -1.33332095 -2.83319697 -0.67102033 0 0 Z " fill="#EDEFF7" transform="translate(110,31)"/>
<path d="M0 0 C-0.33 2.31 -0.66 4.62 -1 7 C-2.65 6.67 -4.3 6.34 -6 6 C-5.6875 4.125 -5.6875 4.125 -5 2 C-2 0 -2 0 0 0 Z " fill="#090B3D" transform="translate(61,99)"/>
<path d="M0 0 C0.33 0.66 0.66 1.32 1 2 C3.01669827 3.13350534 3.01669827 3.13350534 5 4 C4.67 5.65 4.34 7.3 4 9 C1.87961365 6.38485683 -0.13091744 3.80362384 -2 1 C-1.34 0.67 -0.68 0.34 0 0 Z M4 1 C4.66 1 5.32 1 6 1 C5.67 1.99 5.34 2.98 5 4 C4.67 3.01 4.34 2.02 4 1 Z " fill="#181A50" transform="translate(90,39)"/>
<path d="M0 0 C2.15377564 2.62198774 3.40072174 4.64404172 4 8 C2.02 8.99 2.02 8.99 0 10 C0.33 8.68 0.66 7.36 1 6 C0.01 6.33 -0.98 6.66 -2 7 C-1.125 2.25 -1.125 2.25 0 0 Z " fill="#F2F3F8" transform="translate(91,44)"/>
<path d="M0 0 C0.66 0.33 1.32 0.66 2 1 C0.02 3.97 0.02 3.97 -2 7 C-2.66 6.67 -3.32 6.34 -4 6 C-4.99 7.485 -4.99 7.485 -6 9 C-6.66 7.68 -7.32 6.36 -8 5 C-6.71475739 4.13619741 -5.42157581 3.28419631 -4.125 2.4375 C-3.04605469 1.72400391 -3.04605469 1.72400391 -1.9453125 0.99609375 C-1.30335937 0.66738281 -0.66140625 0.33867188 0 0 Z " fill="#E3E5EC" transform="translate(100,93)"/>
<path d="M0 0 C2.00011163 0.22581905 4.00041475 0.45578001 5.9921875 0.74609375 C8.15874881 1.06272998 8.15874881 1.06272998 11 1 C11 1.66 11 2.32 11 3 C8.19084526 4.40457737 6.11189466 4.24895157 3 4 C0.625 2.5 0.625 2.5 -1 1 C-0.67 0.67 -0.34 0.34 0 0 Z " fill="#0C103E" transform="translate(116,165)"/>
<path d="M0 0 C1.98 1.65 3.96 3.3 6 5 C5.34 5.66 4.68 6.32 4 7 C3.34 6.67 2.68 6.34 2 6 C1.67 6.99 1.34 7.98 1 9 C1 7.68 1 6.36 1 5 C0.34 4.67 -0.32 4.34 -1 4 C-0.67 2.68 -0.34 1.36 0 0 Z " fill="#EAECF4" transform="translate(101,155)"/>
<path d="M0 0 C2.64 0 5.28 0 8 0 C8 1.66666667 8 3.33333333 8 5 C5.36 4.34 2.72 3.68 0 3 C0 2.01 0 1.02 0 0 Z " fill="#E6E9F1" transform="translate(50,88)"/>
<path d="M0 0 C0.33 0 0.66 0 1 0 C1.21192221 5.19209404 0.5912689 9.126739 -1 14 C-1.66 12.68 -2.32 11.36 -3 10 C-3.99 10.495 -3.99 10.495 -5 11 C-3.25 7.125 -3.25 7.125 -1 6 C-0.34227572 2.97065509 -0.34227572 2.97065509 0 0 Z " fill="#E4E5F2" transform="translate(96,66)"/>
<path d="M0 0 C1.2065625 0.0309375 1.2065625 0.0309375 2.4375 0.0625 C3.0975 1.7125 3.7575 3.3625 4.4375 5.0625 C0.52911134 5.0625 -0.67844107 3.55682124 -3.5625 1.0625 C-2.5625 0.0625 -2.5625 0.0625 0 0 Z " fill="#151943" transform="translate(84.5625,33.9375)"/>
<path d="M0 0 C0.99 0.33 1.98 0.66 3 1 C3 2.32 3 3.64 3 5 C1.02 5.33 -0.96 5.66 -3 6 C-3.33 5.34 -3.66 4.68 -4 4 C-2.68 3.67 -1.36 3.34 0 3 C-0.99 2.67 -1.98 2.34 -3 2 C-2.01 2 -1.02 2 0 2 C0 1.34 0 0.68 0 0 Z " fill="#080E41" transform="translate(140,164)"/>
<path d="M0 0 C4.875 4.625 4.875 4.625 6 8 C5.01 8.33 4.02 8.66 3 9 C1.66666667 6.33333333 0.33333333 3.66666667 -1 1 C-0.67 0.67 -0.34 0.34 0 0 Z " fill="#E9ECF4" transform="translate(94,145)"/>
<path d="M0 0 C1.32 1.65 2.64 3.3 4 5 C3.13375 5.185625 3.13375 5.185625 2.25 5.375 C-0.02335767 6.00648824 -1.9253529 6.88858191 -4 8 C-4.33 7.34 -4.66 6.68 -5 6 C-4.360625 5.566875 -3.72125 5.13375 -3.0625 4.6875 C-0.73253997 3.08760823 -0.73253997 3.08760823 0 0 Z " fill="#E4E7ED" transform="translate(60,104)"/>
<path d="M0 0 C0.99 0 1.98 0 3 0 C3 2.31 3 4.62 3 7 C3.66 7.33 4.32 7.66 5 8 C3.68 8.33 2.36 8.66 1 9 C0.67 6.03 0.34 3.06 0 0 Z " fill="#040741" transform="translate(86,96)"/>
<path d="M0 0 C1.32 0.33 2.64 0.66 4 1 C4 3.31 4 5.62 4 8 C3.34 8 2.68 8 2 8 C0.74335022 5.09399739 0 3.20395416 0 0 Z " fill="#0C0D3D" transform="translate(94,47)"/>
<path d="M0 0 C0.81210938 0.29003906 1.62421875 0.58007812 2.4609375 0.87890625 C3.27820313 1.16636719 4.09546875 1.45382813 4.9375 1.75 C5.56398437 1.97816406 6.19046875 2.20632812 6.8359375 2.44140625 C3.82123112 4.19399044 3.21640542 4.53092811 -0.3515625 3.69140625 C-3.1640625 2.44140625 -3.1640625 2.44140625 -4.1640625 0.44140625 C-2.1640625 -0.55859375 -2.1640625 -0.55859375 0 0 Z " fill="#EEF1FA" transform="translate(138.1640625,159.55859375)"/>
<path d="M0 0 C1.65 0.33 3.3 0.66 5 1 C4.34 2.98 3.68 4.96 3 7 C1.68 5.68 0.36 4.36 -1 3 C-0.67 2.01 -0.34 1.02 0 0 Z " fill="#E5E8F0" transform="translate(115,136)"/>
<path d="M0 0 C4 0 4 0 6 1 C6 1.66 6 2.32 6 3 C3.5 4.625 3.5 4.625 1 6 C1 5.34 1 4.68 1 4 C0.34 3.67 -0.32 3.34 -1 3 C-0.67 2.01 -0.34 1.02 0 0 Z " fill="#EEF0F1" transform="translate(77,124)"/>
<path d="M0 0 C2.9375 1.3125 2.9375 1.3125 6 3 C6.33 3.99 6.66 4.98 7 6 C2.25 5.125 2.25 5.125 0 4 C0 2.68 0 1.36 0 0 Z " fill="#171844" transform="translate(53,91)"/>
<path d="M0 0 C1.98 0 3.96 0 6 0 C5.67 1.32 5.34 2.64 5 4 C3.35 4 1.7 4 0 4 C0 2.68 0 1.36 0 0 Z " fill="#0C0C3D" transform="translate(47,91)"/>
<path d="M0 0 C-1.39332574 3.36720387 -2.9789286 4.9859524 -6 7 C-6.66 6.34 -7.32 5.68 -8 5 C-7.01 5 -6.02 5 -5 5 C-5 3.68 -5 2.36 -5 1 C-2 0 -2 0 0 0 Z " fill="#1D1F45" transform="translate(110,84)"/>
<path d="M0 0 C-0.33 0.66 -0.66 1.32 -1 2 C-4.63 1.67 -8.26 1.34 -12 1 C-7.01222852 -1.49388574 -5.33016752 -0.88836125 0 0 Z " fill="#2A2E55" transform="translate(133,169)"/>
<path d="M0 0 C1.32 0.33 2.64 0.66 4 1 C3.34 1 2.68 1 2 1 C2 2.32 2 3.64 2 5 C2.66 5 3.32 5 4 5 C4 5.66 4 6.32 4 7 C2.68 7 1.36 7 0 7 C0 4.69 0 2.38 0 0 Z " fill="#090A2A" transform="translate(10,24)"/>
<path d="M0 0 C4.35535069 1.16142685 6.64619703 2.07699505 9 6 C8.01 6.495 8.01 6.495 7 7 C5.83040013 6.02433888 4.66438823 5.044375 3.5 4.0625 C2.8503125 3.51722656 2.200625 2.97195312 1.53125 2.41015625 C1.0259375 1.94480469 0.520625 1.47945312 0 1 C0 0.67 0 0.34 0 0 Z " fill="#141642" transform="translate(106,159)"/>
<path d="M0 0 C2.475 0.495 2.475 0.495 5 1 C5 3.31 5 5.62 5 8 C2.74754119 5.31158141 1.11786042 3.35358125 0 0 Z " fill="#121540" transform="translate(80,121)"/>
<path d="M0 0 C0.33 0.66 0.66 1.32 1 2 C1.66 2 2.32 2 3 2 C3 3.65 3 5.3 3 7 C2.01 6.34 1.02 5.68 0 5 C-0.99 5.495 -0.99 5.495 -2 6 C-1.49396008 3.83125748 -1.00016187 2.00032373 0 0 Z " fill="#F6F9F1" transform="translate(65,97)"/>
<path d="M0 0 C0.33 0.99 0.66 1.98 1 3 C-0.98 3.66 -2.96 4.32 -5 5 C-5 4.01 -5 3.02 -5 2 C-2 0 -2 0 0 0 Z " fill="#141742" transform="translate(79,96)"/>
<path d="M0 0 C0.33 0.99 0.66 1.98 1 3 C0.01 3.33 -0.98 3.66 -2 4 C-2.33 3.01 -2.66 2.02 -3 1 C-5.01508358 0.26676204 -5.01508358 0.26676204 -7 0 C-4.3333581 -1.33332095 -2.83319697 -0.67102033 0 0 Z " fill="#0B0D3E" transform="translate(97,28)"/>
<path d="M0 0 C3.875 1.75 3.875 1.75 5 4 C4.34 4 3.68 4 3 4 C2.67 4.66 2.34 5.32 2 6 C1.34 5.34 0.68 4.68 0 4 C0 2.68 0 1.36 0 0 Z " fill="#1A1B42" transform="translate(118,146)"/>
<path d="M0 0 C1.25541557 3.76624671 0.37061958 5.37188934 -1 9 C-1.66 8.67 -2.32 8.34 -3 8 C-2.25 2.25 -2.25 2.25 0 0 Z " fill="#16183F" transform="translate(72,100)"/>
<path d="M0 0 C-0.66 1.98 -1.32 3.96 -2 6 C-3.5 4.625 -3.5 4.625 -5 3 C-5 2.34 -5 1.68 -5 1 C-2 0 -2 0 0 0 Z " fill="#151B41" transform="translate(116,74)"/>
</svg>
