<svg xmlns="http://www.w3.org/2000/svg" xmlns:xlink="http://www.w3.org/1999/xlink" width="500" zoomAndPan="magnify" viewBox="0 0 375 374.999991" height="500" preserveAspectRatio="xMidYMid meet" version="1.0"><defs><g/><clipPath id="08d1987fca"><path d="M 137.121094 98.101562 L 237.621094 98.101562 L 237.621094 209.101562 L 137.121094 209.101562 Z M 137.121094 98.101562 " clip-rule="nonzero"/></clipPath></defs><g clip-path="url(#08d1987fca)"><path fill="#03084c" d="M 168.351562 148.335938 C 163.636719 148.039062 159.746094 151.929688 160.042969 156.648438 C 160.289062 160.539062 163.445312 163.695312 167.339844 163.941406 C 172.054688 164.238281 175.945312 160.347656 175.648438 155.628906 C 175.402344 151.742188 172.246094 148.582031 168.351562 148.335938 Z M 237.878906 204.457031 L 237.203125 209.183594 C 235.007812 209.183594 233.152344 209.015625 230.957031 208.847656 C 218.636719 208.003906 212.054688 204.796875 204.628906 194.332031 C 198.386719 185.726562 192.308594 175.09375 186.910156 166.488281 C 185.347656 163.984375 184.035156 162.425781 182.226562 161.472656 C 181.136719 160.898438 180.828125 159.488281 181.601562 158.527344 C 181.96875 158.078125 182.320312 157.617188 182.660156 157.148438 C 184.261719 154.941406 186.476562 153.25 188.992188 152.183594 C 190.667969 151.472656 192.148438 150.566406 193.492188 149.441406 C 200.074219 144.546875 202.773438 137.792969 202.773438 128.679688 C 202.773438 110.625 190.792969 104.039062 177.796875 104.039062 C 172.902344 104.039062 140.816406 103.953125 137.121094 103.84375 L 137.121094 98.132812 L 180.160156 98.132812 C 192.476562 98.132812 200.75 99.652344 207.160156 103.871094 C 214.082031 108.261719 218.636719 115.855469 218.636719 126.148438 C 218.636719 140.664062 209.355469 149.777344 196.867188 155.179688 C 199.902344 160.410156 207.160156 171.71875 212.222656 179.3125 C 218.46875 188.257812 221.675781 192.476562 225.558594 196.695312 C 230.113281 201.589844 233.996094 203.445312 237.878906 204.457031 " fill-opacity="1" fill-rule="nonzero"/></g><g fill="#03084c" fill-opacity="1"><g transform="translate(44.05695, 240.850487)"><g><path d="M 12.125 -2.8125 L 12.8125 -0.5 C 12.539062 -0.289062 12.191406 -0.125 11.765625 0 C 11.347656 0.125 10.921875 0.1875 10.484375 0.1875 C 9.679688 0.1875 8.976562 0.0234375 8.375 -0.296875 C 7.78125 -0.628906 7.285156 -1.109375 6.890625 -1.734375 L 5.328125 -4.234375 C 5.148438 -4.523438 4.972656 -4.726562 4.796875 -4.84375 C 4.617188 -4.957031 4.410156 -5.019531 4.171875 -5.03125 L 4.171875 0 L 1.234375 0 L 1.234375 -13.0625 L 5.515625 -13.0625 C 7.316406 -13.0625 8.664062 -12.695312 9.5625 -11.96875 C 10.46875 -11.25 10.921875 -10.25 10.921875 -8.96875 C 10.921875 -7.96875 10.609375 -7.144531 9.984375 -6.5 C 9.367188 -5.863281 8.578125 -5.453125 7.609375 -5.265625 C 8.015625 -5.066406 8.375 -4.738281 8.6875 -4.28125 L 9.3125 -3.328125 C 9.695312 -2.742188 10.207031 -2.453125 10.84375 -2.453125 C 11.082031 -2.453125 11.304688 -2.476562 11.515625 -2.53125 C 11.722656 -2.582031 11.925781 -2.675781 12.125 -2.8125 Z M 5.359375 -10.609375 L 4.171875 -10.609375 L 4.171875 -7.375 L 5.328125 -7.375 C 6.253906 -7.375 6.914062 -7.503906 7.3125 -7.765625 C 7.71875 -8.035156 7.921875 -8.453125 7.921875 -9.015625 C 7.921875 -9.578125 7.691406 -9.984375 7.234375 -10.234375 C 6.785156 -10.484375 6.160156 -10.609375 5.359375 -10.609375 Z M 5.359375 -10.609375 "/></g></g></g><g fill="#03084c" fill-opacity="1"><g transform="translate(60.717063, 240.850487)"><g><path d="M 10.171875 -10.46875 L 4.171875 -10.46875 L 4.171875 -7.875 L 9.78125 -7.875 L 9.78125 -5.28125 L 4.171875 -5.28125 L 4.171875 -2.59375 L 10.359375 -2.59375 L 10.171875 0 L 1.234375 0 L 1.234375 -13.0625 L 10.171875 -13.0625 Z M 10.171875 -10.46875 "/></g></g></g><g fill="#03084c" fill-opacity="1"><g transform="translate(75.961394, 240.850487)"><g><path d="M 5.46875 0.171875 C 3.851562 0.171875 2.601562 -0.171875 1.71875 -0.859375 C 0.84375 -1.546875 0.34375 -2.5625 0.21875 -3.90625 L 3.03125 -4.296875 C 3.101562 -3.660156 3.351562 -3.171875 3.78125 -2.828125 C 4.21875 -2.492188 4.816406 -2.328125 5.578125 -2.328125 C 6.222656 -2.328125 6.71875 -2.441406 7.0625 -2.671875 C 7.414062 -2.898438 7.59375 -3.222656 7.59375 -3.640625 C 7.59375 -4.023438 7.40625 -4.328125 7.03125 -4.546875 C 6.664062 -4.765625 6.0625 -4.972656 5.21875 -5.171875 C 4.3125 -5.390625 3.546875 -5.65625 2.921875 -5.96875 C 2.296875 -6.28125 1.820312 -6.6875 1.5 -7.1875 C 1.1875 -7.6875 1.03125 -8.328125 1.03125 -9.109375 C 1.03125 -9.910156 1.238281 -10.625 1.65625 -11.25 C 2.070312 -11.875 2.65625 -12.359375 3.40625 -12.703125 C 4.15625 -13.054688 5.019531 -13.234375 6 -13.234375 C 7.269531 -13.234375 8.304688 -12.910156 9.109375 -12.265625 C 9.921875 -11.617188 10.390625 -10.726562 10.515625 -9.59375 L 7.890625 -9.15625 C 7.796875 -9.65625 7.566406 -10.039062 7.203125 -10.3125 C 6.847656 -10.59375 6.398438 -10.734375 5.859375 -10.734375 C 5.328125 -10.734375 4.894531 -10.609375 4.5625 -10.359375 C 4.226562 -10.109375 4.0625 -9.769531 4.0625 -9.34375 C 4.0625 -8.945312 4.21875 -8.628906 4.53125 -8.390625 C 4.851562 -8.148438 5.441406 -7.925781 6.296875 -7.71875 C 7.179688 -7.5 7.945312 -7.25 8.59375 -6.96875 C 9.25 -6.695312 9.75 -6.320312 10.09375 -5.84375 C 10.445312 -5.363281 10.625 -4.71875 10.625 -3.90625 C 10.625 -3.101562 10.410156 -2.394531 9.984375 -1.78125 C 9.554688 -1.164062 8.953125 -0.6875 8.171875 -0.34375 C 7.390625 0 6.488281 0.171875 5.46875 0.171875 Z M 5.46875 0.171875 "/></g></g></g><g fill="#03084c" fill-opacity="1"><g transform="translate(91.573457, 240.850487)"><g><path d="M 11.296875 -13.0625 L 10.90625 -10.421875 L 6.953125 -10.421875 L 6.953125 0 L 3.9375 0 L 3.9375 -10.421875 L -0.203125 -10.421875 L -0.203125 -13.0625 Z M 11.296875 -13.0625 "/></g></g></g><g fill="#03084c" fill-opacity="1"><g transform="translate(107.05682, 240.850487)"><g/></g></g><g fill="#03084c" fill-opacity="1"><g transform="translate(116.288688, 240.850487)"><g><path d="M 12.75 -2.5625 C 12.207031 -1.675781 11.460938 -0.992188 10.515625 -0.515625 C 9.578125 -0.046875 8.53125 0.1875 7.375 0.1875 C 5.96875 0.1875 4.765625 -0.0664062 3.765625 -0.578125 C 2.765625 -1.097656 1.992188 -1.835938 1.453125 -2.796875 C 0.921875 -3.765625 0.65625 -4.921875 0.65625 -6.265625 C 0.65625 -7.648438 0.945312 -8.863281 1.53125 -9.90625 C 2.125 -10.945312 2.945312 -11.757812 4 -12.34375 C 5.050781 -12.9375 6.257812 -13.234375 7.625 -13.234375 C 8.832031 -13.234375 9.847656 -13.015625 10.671875 -12.578125 C 11.503906 -12.140625 12.203125 -11.472656 12.765625 -10.578125 L 10.46875 -8.9375 C 10.164062 -9.5 9.757812 -9.910156 9.25 -10.171875 C 8.738281 -10.429688 8.1875 -10.5625 7.59375 -10.5625 C 6.820312 -10.5625 6.144531 -10.378906 5.5625 -10.015625 C 4.988281 -9.660156 4.539062 -9.164062 4.21875 -8.53125 C 3.894531 -7.894531 3.734375 -7.160156 3.734375 -6.328125 C 3.734375 -5.109375 4.050781 -4.160156 4.6875 -3.484375 C 5.320312 -2.816406 6.222656 -2.484375 7.390625 -2.484375 C 8.015625 -2.484375 8.601562 -2.632812 9.15625 -2.9375 C 9.71875 -3.238281 10.171875 -3.691406 10.515625 -4.296875 Z M 12.75 -2.5625 "/></g></g></g><g fill="#03084c" fill-opacity="1"><g transform="translate(133.390074, 240.850487)"><g><path d="M 7.25 0.1875 C 5.875 0.195312 4.695312 -0.0507812 3.71875 -0.5625 C 2.738281 -1.082031 1.984375 -1.828125 1.453125 -2.796875 C 0.921875 -3.765625 0.65625 -4.929688 0.65625 -6.296875 C 0.65625 -7.648438 0.929688 -8.847656 1.484375 -9.890625 C 2.046875 -10.941406 2.835938 -11.757812 3.859375 -12.34375 C 4.878906 -12.9375 6.085938 -13.234375 7.484375 -13.234375 C 8.722656 -13.234375 9.804688 -12.960938 10.734375 -12.421875 C 11.671875 -11.890625 12.398438 -11.140625 12.921875 -10.171875 C 13.441406 -9.210938 13.703125 -8.082031 13.703125 -6.78125 C 13.703125 -5.382812 13.425781 -4.164062 12.875 -3.125 C 12.320312 -2.082031 11.554688 -1.269531 10.578125 -0.6875 C 9.609375 -0.113281 8.5 0.175781 7.25 0.1875 Z M 7.140625 -2.484375 C 8.179688 -2.484375 9.023438 -2.859375 9.671875 -3.609375 C 10.316406 -4.367188 10.640625 -5.414062 10.640625 -6.75 C 10.640625 -7.914062 10.34375 -8.84375 9.75 -9.53125 C 9.164062 -10.226562 8.378906 -10.578125 7.390625 -10.578125 C 6.671875 -10.578125 6.035156 -10.398438 5.484375 -10.046875 C 4.929688 -9.691406 4.5 -9.195312 4.1875 -8.5625 C 3.875 -7.925781 3.71875 -7.1875 3.71875 -6.34375 C 3.71875 -5.113281 4.019531 -4.160156 4.625 -3.484375 C 5.226562 -2.816406 6.066406 -2.484375 7.140625 -2.484375 Z M 7.140625 -2.484375 "/></g></g></g><g fill="#03084c" fill-opacity="1"><g transform="translate(152.348527, 240.850487)"><g><path d="M 1.234375 0 L 1.234375 -13.0625 L 5.46875 -13.0625 C 8.039062 -13.0625 9.984375 -12.515625 11.296875 -11.421875 C 12.609375 -10.328125 13.265625 -8.707031 13.265625 -6.5625 C 13.265625 -5.257812 12.96875 -4.117188 12.375 -3.140625 C 11.789062 -2.160156 10.96875 -1.390625 9.90625 -0.828125 C 8.851562 -0.273438 7.632812 0 6.25 0 Z M 4.234375 -2.671875 L 6.125 -2.671875 C 7.457031 -2.671875 8.46875 -2.988281 9.15625 -3.625 C 9.851562 -4.269531 10.203125 -5.21875 10.203125 -6.46875 C 10.203125 -7.789062 9.84375 -8.773438 9.125 -9.421875 C 8.414062 -10.066406 7.316406 -10.390625 5.828125 -10.390625 L 4.234375 -10.390625 Z M 4.234375 -2.671875 "/></g></g></g><g fill="#03084c" fill-opacity="1"><g transform="translate(170.865695, 240.850487)"><g><path d="M 10.171875 -10.46875 L 4.171875 -10.46875 L 4.171875 -7.875 L 9.78125 -7.875 L 9.78125 -5.28125 L 4.171875 -5.28125 L 4.171875 -2.59375 L 10.359375 -2.59375 L 10.171875 0 L 1.234375 0 L 1.234375 -13.0625 L 10.171875 -13.0625 Z M 10.171875 -10.46875 "/></g></g></g><g fill="#03084c" fill-opacity="1"><g transform="translate(186.110026, 240.850487)"><g><path d="M 12.125 -2.8125 L 12.8125 -0.5 C 12.539062 -0.289062 12.191406 -0.125 11.765625 0 C 11.347656 0.125 10.921875 0.1875 10.484375 0.1875 C 9.679688 0.1875 8.976562 0.0234375 8.375 -0.296875 C 7.78125 -0.628906 7.285156 -1.109375 6.890625 -1.734375 L 5.328125 -4.234375 C 5.148438 -4.523438 4.972656 -4.726562 4.796875 -4.84375 C 4.617188 -4.957031 4.410156 -5.019531 4.171875 -5.03125 L 4.171875 0 L 1.234375 0 L 1.234375 -13.0625 L 5.515625 -13.0625 C 7.316406 -13.0625 8.664062 -12.695312 9.5625 -11.96875 C 10.46875 -11.25 10.921875 -10.25 10.921875 -8.96875 C 10.921875 -7.96875 10.609375 -7.144531 9.984375 -6.5 C 9.367188 -5.863281 8.578125 -5.453125 7.609375 -5.265625 C 8.015625 -5.066406 8.375 -4.738281 8.6875 -4.28125 L 9.3125 -3.328125 C 9.695312 -2.742188 10.207031 -2.453125 10.84375 -2.453125 C 11.082031 -2.453125 11.304688 -2.476562 11.515625 -2.53125 C 11.722656 -2.582031 11.925781 -2.675781 12.125 -2.8125 Z M 5.359375 -10.609375 L 4.171875 -10.609375 L 4.171875 -7.375 L 5.328125 -7.375 C 6.253906 -7.375 6.914062 -7.503906 7.3125 -7.765625 C 7.71875 -8.035156 7.921875 -8.453125 7.921875 -9.015625 C 7.921875 -9.578125 7.691406 -9.984375 7.234375 -10.234375 C 6.785156 -10.484375 6.160156 -10.609375 5.359375 -10.609375 Z M 5.359375 -10.609375 "/></g></g></g><g fill="#03084c" fill-opacity="1"><g transform="translate(202.770139, 240.850487)"><g/></g></g><g fill="#03084c" fill-opacity="1"><g transform="translate(212.002007, 240.850487)"><g><path d="M -0.4375 0 L 5.21875 -13.0625 L 7.75 -13.0625 L 13.1875 0 L 10.140625 0 L 9.078125 -2.671875 L 3.703125 -2.671875 L 2.609375 0 Z M 4.71875 -5.171875 L 8.09375 -5.171875 L 6.4375 -9.375 Z M 4.71875 -5.171875 "/></g></g></g><g fill="#03084c" fill-opacity="1"><g transform="translate(229.415966, 240.850487)"><g><path d="M 12.75 -2.5625 C 12.207031 -1.675781 11.460938 -0.992188 10.515625 -0.515625 C 9.578125 -0.046875 8.53125 0.1875 7.375 0.1875 C 5.96875 0.1875 4.765625 -0.0664062 3.765625 -0.578125 C 2.765625 -1.097656 1.992188 -1.835938 1.453125 -2.796875 C 0.921875 -3.765625 0.65625 -4.921875 0.65625 -6.265625 C 0.65625 -7.648438 0.945312 -8.863281 1.53125 -9.90625 C 2.125 -10.945312 2.945312 -11.757812 4 -12.34375 C 5.050781 -12.9375 6.257812 -13.234375 7.625 -13.234375 C 8.832031 -13.234375 9.847656 -13.015625 10.671875 -12.578125 C 11.503906 -12.140625 12.203125 -11.472656 12.765625 -10.578125 L 10.46875 -8.9375 C 10.164062 -9.5 9.757812 -9.910156 9.25 -10.171875 C 8.738281 -10.429688 8.1875 -10.5625 7.59375 -10.5625 C 6.820312 -10.5625 6.144531 -10.378906 5.5625 -10.015625 C 4.988281 -9.660156 4.539062 -9.164062 4.21875 -8.53125 C 3.894531 -7.894531 3.734375 -7.160156 3.734375 -6.328125 C 3.734375 -5.109375 4.050781 -4.160156 4.6875 -3.484375 C 5.320312 -2.816406 6.222656 -2.484375 7.390625 -2.484375 C 8.015625 -2.484375 8.601562 -2.632812 9.15625 -2.9375 C 9.71875 -3.238281 10.171875 -3.691406 10.515625 -4.296875 Z M 12.75 -2.5625 "/></g></g></g><g fill="#03084c" fill-opacity="1"><g transform="translate(246.51734, 240.850487)"><g><path d="M -0.4375 0 L 5.21875 -13.0625 L 7.75 -13.0625 L 13.1875 0 L 10.140625 0 L 9.078125 -2.671875 L 3.703125 -2.671875 L 2.609375 0 Z M 4.71875 -5.171875 L 8.09375 -5.171875 L 6.4375 -9.375 Z M 4.71875 -5.171875 "/></g></g></g><g fill="#03084c" fill-opacity="1"><g transform="translate(263.93131, 240.850487)"><g><path d="M 1.234375 0 L 1.234375 -13.0625 L 5.46875 -13.0625 C 8.039062 -13.0625 9.984375 -12.515625 11.296875 -11.421875 C 12.609375 -10.328125 13.265625 -8.707031 13.265625 -6.5625 C 13.265625 -5.257812 12.96875 -4.117188 12.375 -3.140625 C 11.789062 -2.160156 10.96875 -1.390625 9.90625 -0.828125 C 8.851562 -0.273438 7.632812 0 6.25 0 Z M 4.234375 -2.671875 L 6.125 -2.671875 C 7.457031 -2.671875 8.46875 -2.988281 9.15625 -3.625 C 9.851562 -4.269531 10.203125 -5.21875 10.203125 -6.46875 C 10.203125 -7.789062 9.84375 -8.773438 9.125 -9.421875 C 8.414062 -10.066406 7.316406 -10.390625 5.828125 -10.390625 L 4.234375 -10.390625 Z M 4.234375 -2.671875 "/></g></g></g><g fill="#03084c" fill-opacity="1"><g transform="translate(282.44849, 240.850487)"><g><path d="M 10.171875 -10.46875 L 4.171875 -10.46875 L 4.171875 -7.875 L 9.78125 -7.875 L 9.78125 -5.28125 L 4.171875 -5.28125 L 4.171875 -2.59375 L 10.359375 -2.59375 L 10.171875 0 L 1.234375 0 L 1.234375 -13.0625 L 10.171875 -13.0625 Z M 10.171875 -10.46875 "/></g></g></g><g fill="#03084c" fill-opacity="1"><g transform="translate(297.69282, 240.850487)"><g><path d="M 1.203125 0 L 1.65625 -13.0625 L 4.171875 -13.0625 L 8.75 -3.765625 L 13.296875 -13.0625 L 15.8125 -13.0625 L 16.171875 0 L 13.265625 0 L 13.09375 -6.796875 L 9.734375 0 L 7.546875 0 L 4.21875 -6.734375 L 3.96875 0 Z M 1.203125 0 "/></g></g></g><g fill="#03084c" fill-opacity="1"><g transform="translate(319.685091, 240.850487)"><g><path d="M 11.640625 -13.0625 L 7.15625 -5.828125 L 7.15625 0 L 4.140625 0 L 4.140625 -5.71875 L -0.5 -13.0625 L 2.875 -13.0625 L 5.75 -8.4375 L 8.5 -13.0625 Z M 11.640625 -13.0625 "/></g></g></g></svg>