<?xml version="1.0" encoding="UTF-8"?>
<svg version="1.1" xmlns="http://www.w3.org/2000/svg" width="500" height="500">
<path d="M0 0 C165 0 330 0 500 0 C500 165 500 330 500 500 C335 500 170 500 0 500 C0 335 0 170 0 0 Z " fill="#FEFEFE" transform="translate(0,0)"/>
<path d="M0 0 C9.31073134 -0.06985741 18.62137088 -0.12299123 27.9323082 -0.15543652 C32.25688764 -0.17101747 36.58128629 -0.19211533 40.90576172 -0.22631836 C45.08792113 -0.25918454 49.26990788 -0.27690976 53.45218658 -0.28463173 C55.03879764 -0.29012677 56.62540046 -0.30085557 58.21193695 -0.31719017 C72.58762296 -0.4591605 86.90195622 0.83205364 98.1015625 10.88671875 C106.45571043 19.93408321 108.50245352 28.87234521 108.2734375 40.8828125 C107.82906016 50.47872315 103.57857795 58.16343861 97 65 C85.83268482 75 85.83268482 75 80 75 C82.73418947 80.69835749 85.77060178 85.97849842 89.25 91.25 C89.73452637 91.99016357 90.21905273 92.73032715 90.71826172 93.49291992 C91.69195166 94.97823967 92.66765521 96.46224163 93.64550781 97.94482422 C94.82976375 99.74169993 96.0054523 101.54421617 97.1796875 103.34765625 C111.38523826 126.25876466 111.38523826 126.25876466 133 141 C133 142.98 133 144.96 133 147 C119.40076142 147.42596223 108.68694519 147.4270106 98 138 C97.15888672 137.29810547 97.15888672 137.29810547 96.30078125 136.58203125 C88.12361107 129.16730118 82.660668 118.7514776 76.9765625 109.41796875 C76.62413986 108.84046371 76.27171722 108.26295868 75.90861511 107.66795349 C74.13509948 104.75998002 72.37048942 101.84725756 70.62133789 98.92456055 C69.96641357 97.84343994 69.31148926 96.76231934 68.63671875 95.6484375 C68.05623779 94.68083496 67.47575684 93.71323242 66.87768555 92.71630859 C64.85385023 89.78857596 62.53485828 87.48757897 60 85 C58.875 82.5625 58.875 82.5625 59 80 C62.09884905 75.04184153 65.6194435 72.93967511 70.72265625 70.2734375 C78.12893573 66.13201879 82.36599229 60.83713475 85.08203125 52.796875 C87.28576061 43.68187527 87.48620743 32.69481211 83.3203125 24.14453125 C78.42893182 16.19965554 73.15160258 12.16996538 64.25201416 9.46961975 C61.42201095 8.87947009 58.74603686 8.8358176 55.85449219 8.79467773 C54.61350769 8.77473251 53.37252319 8.75478729 52.09393311 8.73423767 C50.744915 8.71725607 49.39589559 8.70037717 48.046875 8.68359375 C46.66253049 8.66301124 45.27819208 8.64201443 43.89385986 8.62062073 C40.257456 8.56553393 36.62099667 8.51606586 32.98449707 8.46777344 C29.27086475 8.41746036 25.55731256 8.36182558 21.84375 8.30664062 C14.56256794 8.19922296 7.28131906 8.09774192 0 8 C0 5.36 0 2.72 0 0 Z " fill="#05094A" transform="translate(183,131)"/>
<path d="M0 0 C2.875 2.5 2.875 2.5 5 5 C5.33 3.68 5.66 2.36 6 1 C6.61875 1.185625 7.2375 1.37125 7.875 1.5625 C10.04160178 2.23686176 10.04160178 2.23686176 12 1 C12 1.66 12 2.32 12 3 C12.680625 2.484375 13.36125 1.96875 14.0625 1.4375 C17.90525323 -0.44299626 19.91132242 -0.11509388 24 1 C26.4375 2.625 26.4375 2.625 28 5 C28.63339504 9.97667533 28.05383902 13.00651821 25 17 C21.82975235 18.58512383 18.45332972 18.42372144 15 18 C13 16.5 13 16.5 12 15 C10.576875 15.495 10.576875 15.495 9.125 16 C6 17 6 17 4 17 C2.36323743 18.9600281 2.36323743 18.9600281 1 21 C-7.83018868 18.05660377 -7.83018868 18.05660377 -10.9375 15.25 C-12.49398717 11.95390952 -12.44210139 9.59996843 -12 6 C-8.63646389 0.84257796 -6.18392951 -0.72752112 0 0 Z " fill="#F0F2F4" transform="translate(168,303)"/>
<path d="M0 0 C1.28132813 0.10183594 2.56265625 0.20367187 3.8828125 0.30859375 C4.87023437 0.39238281 5.85765625 0.47617187 6.875 0.5625 C6.545 2.2125 6.215 3.8625 5.875 5.5625 C6.4525 5.3975 7.03 5.2325 7.625 5.0625 C9.875 4.5625 9.875 4.5625 13.875 4.5625 C14.205 3.2425 14.535 1.9225 14.875 0.5625 C17.16796875 0.62890625 17.16796875 0.62890625 19.875 1.5625 C21.2582764 3.93597426 22.23510895 5.96447872 23.1875 8.5 C23.45111328 9.14646484 23.71472656 9.79292969 23.98632812 10.45898438 C25.875 15.18311688 25.875 15.18311688 25.875 17.5625 C24.555 17.5625 23.235 17.5625 21.875 17.5625 C21.38 16.5725 21.38 16.5725 20.875 15.5625 C18.97966658 15.09726937 18.97966658 15.09726937 16.8125 14.9375 C15.513125 14.81375 14.21375 14.69 12.875 14.5625 C12.875 15.5525 12.875 16.5425 12.875 17.5625 C10.17317364 17.63969504 7.89050704 17.56619215 5.25 16.9375 C2.61486181 16.24648917 2.61486181 16.24648917 -0.125 18.5625 C-2.5 18.4609375 -2.5 18.4609375 -5.125 17.9375 C-6.424375 17.70160156 -6.424375 17.70160156 -7.75 17.4609375 C-10.66732791 16.35734306 -11.59237471 15.2482903 -13.125 12.5625 C-13.66546356 8.31600057 -13.60876179 6.30426808 -11.25 2.6875 C-7.49717917 -1.06532083 -5.17123454 -0.42310101 0 0 Z " fill="#ECEEF3" transform="translate(320.125,303.4375)"/>
<path d="M0 0 C3.96 0 7.92 0 12 0 C12.33 2.31 12.66 4.62 13 7 C13.66 7 14.32 7 15 7 C15.33 5.35 15.66 3.7 16 2 C18.8406149 1.24940472 21.65307423 0.66352244 24.5625 0.25 C25.32691406 0.13140625 26.09132813 0.0128125 26.87890625 -0.109375 C29 0 29 0 30.77734375 1.359375 C32 3 32 3 32 5 C29.36 4.67 26.72 4.34 24 4 C24 4.99 24 5.98 24 7 C25.7015625 7.4640625 25.7015625 7.4640625 27.4375 7.9375 C31 9 31 9 32 10 C32.25 12.9375 32.25 12.9375 32 16 C28.22042791 18.51971473 25.43987162 18.63293767 21 18 C19.1875 16.5625 19.1875 16.5625 18 15 C17.01 14.67 16.02 14.34 15 14 C15 13.01 15 12.02 15 11 C14.67 11.66 14.34 12.32 14 13 C13.34 13 12.68 13 12 13 C12 14.65 12 16.3 12 18 C8.04 18 4.08 18 0 18 C0 12.06 0 6.12 0 0 Z " fill="#F1F3F1" transform="translate(83,303)"/>
<path d="M0 0 C3.12824432 1.32081427 4.56971762 2.31545986 6.375 5.1875 C7.22697314 9.02137913 7.18532412 12.23993211 6 16 C3.82070563 18.72411796 2.27570513 19.7573387 -1.15625 20.41015625 C-5.34224779 20.68224611 -7.45185331 20.36543112 -11 18 C-13.44343509 14.33484737 -14.6135967 11.42481 -14 7 C-10.5956117 0.80534834 -6.79983246 -0.46100559 0 0 Z " fill="#070947" transform="translate(227,198)"/>
<path d="M0 0 C21.78 0 43.56 0 66 0 C66 0.33 66 0.66 66 1 C45.21 1.33 24.42 1.66 3 2 C2.67 2.99 2.34 3.98 2 5 C3.00025711 4.99666908 3.00025711 4.99666908 4.02072144 4.99327087 C10.99688173 4.97104955 17.97303187 4.95602343 24.94921875 4.94506836 C27.54850676 4.94005729 30.14779198 4.93324666 32.74707031 4.92456055 C36.49544975 4.91235318 40.24379173 4.90673927 43.9921875 4.90234375 C45.14363251 4.89718246 46.29507751 4.89202118 47.48141479 4.88670349 C54.05195939 4.88625249 60.47809516 5.18837112 67 6 C63.45412059 8.3639196 61.98496318 8.24355585 57.78442383 8.22705078 C56.5033223 8.22689972 55.22222076 8.22674866 53.90229797 8.22659302 C52.50387416 8.21637973 51.10545192 8.20594774 49.70703125 8.1953125 C48.27642515 8.19158178 46.84581648 8.18873509 45.41520691 8.18673706 C41.65207856 8.17910522 37.88910489 8.15946069 34.1260376 8.1373291 C30.28521822 8.11686094 26.44437383 8.10773327 22.60351562 8.09765625 C15.06893994 8.07621429 7.53449166 8.04208387 0 8 C0 5.36 0 2.72 0 0 Z " fill="#161A42" transform="translate(183,131)"/>
<path d="M0 0 C3.69879153 1.16443437 5.24663599 1.8273867 7.375 5.0625 C8.00839504 10.03917533 7.42883902 13.06901821 4.375 17.0625 C1.16397726 18.66801137 -2.14199208 18.53057221 -5.625 18.0625 C-8.125 16.625 -8.125 16.625 -9.625 14.0625 C-10.43942033 10.23329563 -10.68709824 6.72507781 -8.51953125 3.33203125 C-5.73786573 0.6696865 -3.80733387 0.06564369 0 0 Z " fill="#131642" transform="translate(188.625,302.9375)"/>
<path d="M0 0 C10.08839779 -0.60773481 10.08839779 -0.60773481 14.1875 2.125 C16.33797846 5.53610376 16.74158034 7.04490483 16 11 C13.84909549 14.33761045 12.79587201 15.73470933 9 17 C7.43881572 17.06740865 5.8749748 17.08514456 4.3125 17.0625 C2.1778125 17.0315625 2.1778125 17.0315625 0 17 C0 11.39 0 5.78 0 0 Z " fill="#1F2147" transform="translate(205,304)"/>
<path d="M0 0 C10.3464138 -0.36951478 10.3464138 -0.36951478 13.30078125 1.30078125 C15.97095455 3.97095455 15.93646455 6.31494392 16 10 C14.77795248 12.89432307 13.85884608 14.46622255 11.18359375 16.12890625 C7.4792855 17.60665355 3.95315134 17.11626916 0 17 C0 11.39 0 5.78 0 0 Z " fill="#21254E" transform="translate(354,304)"/>
<path d="M0 0 C1.32 0 2.64 0 4 0 C5.703125 2.1875 5.703125 2.1875 7.25 5 C8.03117187 6.3921875 8.03117187 6.3921875 8.828125 7.8125 C9.21484375 8.534375 9.6015625 9.25625 10 10 C11.65 6.7 13.3 3.4 15 0 C16.32 0 17.64 0 19 0 C19 5.61 19 11.22 19 17 C18.01 17 17.02 17 16 17 C15.67 14.36 15.34 11.72 15 9 C13.68 11.64 12.36 14.28 11 17 C7 16 7 16 5.75 14.125 C5 12 5 12 5 9 C4.34 9 3.68 9 3 9 C3 11.64 3 14.28 3 17 C2.01 17 1.02 17 0 17 C0 11.39 0 5.78 0 0 Z " fill="#131646" transform="translate(399,304)"/>
<path d="M0 0 C9.8 0 9.8 0 13 3 C13.5883927 6.95063669 13.08658519 9.60929907 11 13 C12.32 13.66 13.64 14.32 15 15 C15 15.99 15 16.98 15 18 C12.75 18.3125 12.75 18.3125 10 18 C7.8125 15.5625 7.8125 15.5625 6 13 C5.34 12.67 4.68 12.34 4 12 C4 13.98 4 15.96 4 18 C2.68 18 1.36 18 0 18 C0 12.06 0 6.12 0 0 Z " fill="#34385C" transform="translate(60,303)"/>
<path d="M0 0 C1.588125 -0.061875 3.17625 -0.12375 4.8125 -0.1875 C6.15248047 -0.23970703 6.15248047 -0.23970703 7.51953125 -0.29296875 C10 0 10 0 11.8359375 1.35546875 C13 3 13 3 12.8125 5.5 C12 8 12 8 10 11 C10.825 11.433125 11.65 11.86625 12.5 12.3125 C13.7375 13.1478125 13.7375 13.1478125 15 14 C15 14.99 15 15.98 15 17 C12.25 17.3125 12.25 17.3125 9 17 C6.625 14.5 6.625 14.5 5 12 C4.67 13.65 4.34 15.3 4 17 C2.68 17 1.36 17 0 17 C0 11.39 0 5.78 0 0 Z " fill="#111341" transform="translate(250,304)"/>
<path d="M0 0 C3.28385089 1.39920603 5.03439449 2.97511543 7.25 5.75 C11.84753164 11.17627125 17.09687763 15.84277426 24 18 C24 19.98 24 21.96 24 24 C21.31222198 24.0544207 18.62556788 24.09387266 15.9375 24.125 C15.18533203 24.14175781 14.43316406 24.15851563 13.65820312 24.17578125 C8.70672291 24.21865121 4.69585549 23.58399375 0 22 C0 21.34 0 20.68 0 20 C3.15464408 19.92488943 6.01215488 20.00218788 9.125 20.5625 C11.86973236 20.98017666 13.41454128 20.89496648 16 20 C16.33 18.68 16.66 17.36 17 16 C16.38511719 16.15597656 15.77023437 16.31195313 15.13671875 16.47265625 C14.32847656 16.66730469 13.52023437 16.86195313 12.6875 17.0625 C11.48673828 17.35833984 11.48673828 17.35833984 10.26171875 17.66015625 C8 18 8 18 5 17 C5.226875 16.29875 5.45375 15.5975 5.6875 14.875 C6.10067061 11.07383038 4.88030989 9.27313204 3 6 C2.4740625 4.8553125 2.4740625 4.8553125 1.9375 3.6875 C1.10678318 1.81810662 1.10678318 1.81810662 -1 1 C-0.67 0.67 -0.34 0.34 0 0 Z " fill="#060B42" transform="translate(292,254)"/>
<path d="M0 0 C1.65 0.33 3.3 0.66 5 1 C6.3832764 3.37347426 7.36010895 5.40197872 8.3125 7.9375 C8.57611328 8.58396484 8.83972656 9.23042969 9.11132812 9.89648438 C11 14.62061688 11 14.62061688 11 17 C9.68 17 8.36 17 7 17 C6.67 16.34 6.34 15.68 6 15 C4.10466658 14.53476937 4.10466658 14.53476937 1.9375 14.375 C0.638125 14.25125 -0.66125 14.1275 -2 14 C-2 14.99 -2 15.98 -2 17 C-3.65 17 -5.3 17 -7 17 C-4.69 11.39 -2.38 5.78 0 0 Z " fill="#101340" transform="translate(335,304)"/>
<path d="M0 0 C1.65 0.33 3.3 0.66 5 1 C6.3832764 3.37347426 7.36010895 5.40197872 8.3125 7.9375 C8.57611328 8.58396484 8.83972656 9.23042969 9.11132812 9.89648438 C11 14.62061688 11 14.62061688 11 17 C9.68 17 8.36 17 7 17 C6.67 15.68 6.34 14.36 6 13 C3.36 13 0.72 13 -2 13 C-2.33 14.32 -2.66 15.64 -3 17 C-4.32 16.67 -5.64 16.34 -7 16 C-4.69 10.72 -2.38 5.44 0 0 Z " fill="#141440" transform="translate(289,304)"/>
<path d="M0 0 C1.8125 1.375 1.8125 1.375 3 3 C3 3.66 3 4.32 3 5 C0.36 4.67 -2.28 4.34 -5 4 C-5 4.99 -5 5.98 -5 7 C-3.2984375 7.4640625 -3.2984375 7.4640625 -1.5625 7.9375 C2 9 2 9 3 10 C3.25 12.9375 3.25 12.9375 3 16 C-1.06849409 18.71232939 -3.16476784 18.30699887 -8 18 C-8.66 17.34 -9.32 16.68 -10 16 C-10 15.01 -10 14.02 -10 13 C-9.01 12.67 -8.02 12.34 -7 12 C-6.34 12.66 -5.68 13.32 -5 14 C-2.93125966 14.6425235 -2.93125966 14.6425235 -1 15 C-1.33 14.01 -1.66 13.02 -2 12 C-5.50294871 10.28432339 -5.50294871 10.28432339 -9 9 C-9.25 6.1875 -9.25 6.1875 -9 3 C-6.30254095 0.00282328 -3.95012118 -0.60771095 0 0 Z " fill="#1C1D4A" transform="translate(112,303)"/>
<path d="M0 0 C2.375 2 2.375 2 4 4 C1.48828873 5.58144783 0.36863138 6.05266163 -2.625 5.625 C-3.40875 5.41875 -4.1925 5.2125 -5 5 C-5.66 5 -6.32 5 -7 5 C-7 7.97 -7 10.94 -7 14 C-3.4780279 14.08004482 -0.38018531 14.04005702 3 13 C3 13.99 3 14.98 3 16 C-0.66999075 18.4466605 -3.73535118 18.8237551 -8 18 C-11.26104325 15.30963932 -11.9034571 13.67580027 -12.5 9.5 C-11.9231981 5.46238667 -10.85349783 3.85349783 -8 1 C-5.15916359 -0.42041821 -3.14522722 -0.31452272 0 0 Z " fill="#0D0F3C" transform="translate(168,303)"/>
<path d="M0 0 C0.70125 0.06703125 1.4025 0.1340625 2.125 0.203125 C4 0.75 4 0.75 6 3.75 C3.48828873 5.33144783 2.36863138 5.80266163 -0.625 5.375 C-1.40875 5.16875 -2.1925 4.9625 -3 4.75 C-3.66 4.75 -4.32 4.75 -5 4.75 C-5.16677282 8.16656024 -5.16677282 8.16656024 -5 11.75 C-4.34 12.41 -3.68 13.07 -3 13.75 C-1.0068433 13.77375926 -1.0068433 13.77375926 1.125 13.375 C2.40375 13.16875 3.6825 12.9625 5 12.75 C5 13.74 5 14.73 5 15.75 C1.24952518 18.25031654 -0.55856266 18.28603554 -5 17.75 C-7.9375 15.6875 -7.9375 15.6875 -10 12.75 C-10.69151325 8.44725091 -10.51557405 6.54054688 -8.125 2.875 C-5.23789874 -0.01210126 -3.94319058 -0.43491073 0 0 Z " fill="#111441" transform="translate(317,303.25)"/>
<path d="M0 0 C3.96 0 7.92 0 12 0 C12 0.99 12 1.98 12 3 C9.36 3 6.72 3 4 3 C4 4.32 4 5.64 4 7 C6.31 7 8.62 7 11 7 C11 7.99 11 8.98 11 10 C8.69 10 6.38 10 4 10 C4 11.32 4 12.64 4 14 C6.64 14 9.28 14 12 14 C12 14.99 12 15.98 12 17 C8.04 17 4.08 17 0 17 C0 11.39 0 5.78 0 0 Z " fill="#111447" transform="translate(378,304)"/>
<path d="M0 0 C3.63 0 7.26 0 11 0 C11 0.99 11 1.98 11 3 C8.69 3 6.38 3 4 3 C4 3.99 4 4.98 4 6 C6.31 6 8.62 6 11 6 C11 7.32 11 8.64 11 10 C8.36 10 5.72 10 3 10 C3 11.32 3 12.64 3 14 C5.64 14 8.28 14 11 14 C11 14.99 11 15.98 11 17 C7.37 17 3.74 17 0 17 C0 11.39 0 5.78 0 0 Z " fill="#1A1C4E" transform="translate(83,304)"/>
<path d="M0 0 C3.63 0 7.26 0 11 0 C11 0.99 11 1.98 11 3 C8.36 3 5.72 3 3 3 C3 4.32 3 5.64 3 7 C5.64 7 8.28 7 11 7 C11 7.99 11 8.98 11 10 C8.36 10 5.72 10 3 10 C3 11.32 3 12.64 3 14 C5.64 14 8.28 14 11 14 C11 14.99 11 15.98 11 17 C7.37 17 3.74 17 0 17 C0 11.39 0 5.78 0 0 Z " fill="#080933" transform="translate(230,304)"/>
<path d="M0 0 C0.99 0.33 1.98 0.66 3 1 C2.505 1.7425 2.505 1.7425 2 2.5 C0.56363642 6.09090894 0.87148538 9.14456127 1 13 C-1.33333333 13 -3.66666667 13 -6 13 C-6.66 13.66 -7.32 14.32 -8 15 C-11.07692308 8.6 -11.07692308 8.6 -10.6875 5.5625 C-10.460625 5.046875 -10.23375 4.53125 -10 4 C-8.68 4 -7.36 4 -6 4 C-4.989375 3.319375 -3.97875 2.63875 -2.9375 1.9375 C-1.968125 1.298125 -0.99875 0.65875 0 0 Z " fill="#F2F4F4" transform="translate(307,304)"/>
<path d="M0 0 C1.65 0 3.3 0 5 0 C5.66 1.65 6.32 3.3 7 5 C7.66 5 8.32 5 9 5 C9.66 3.35 10.32 1.7 11 0 C12.32 0.33 13.64 0.66 15 1 C14.360625 1.969375 13.72125 2.93875 13.0625 3.9375 C10.61648472 8.1553638 10.21790511 12.19519242 10 17 C8.68 17 7.36 17 6 17 C5.85304688 16.03900391 5.85304688 16.03900391 5.703125 15.05859375 C4.69296191 9.21532275 3.24025175 4.96838601 0 0 Z " fill="#14183F" transform="translate(426,304)"/>
<path d="M0 0 C0.33 0 0.66 0 1 0 C1 5.61 1 11.22 1 17 C-0.98 17 -2.96 17 -5 17 C-5 17.66 -5 18.32 -5 19 C-5.66 18.67 -6.32 18.34 -7 18 C-7 16.68 -7 15.36 -7 14 C-8.32 13.67 -9.64 13.34 -11 13 C-11 9.20442119 -10.49821059 7.37097383 -9 4 C-6 7.625 -6 7.625 -6 11 C-5.01 11.33 -4.02 11.66 -3 12 C-2.34 11.01 -1.68 10.02 -1 9 C-1.66 8.67 -2.32 8.34 -3 8 C-1.125 2.25 -1.125 2.25 0 0 Z " fill="#DBDDEB" transform="translate(82,304)"/>
<path d="M0 0 C4.29 0 8.58 0 13 0 C14.02564103 6.15384615 14.02564103 6.15384615 13 10 C13.185625 10.66 13.37125 11.32 13.5625 12 C14.13666014 14.62473206 13.36168444 15.75722562 12 18 C12 17.01 12 16.02 12 15 C9.36 15 6.72 15 4 15 C4 13.68 4 12.36 4 11 C6.31 11 8.62 11 11 11 C11 10.01 11 9.02 11 8 C8.69 8 6.38 8 4 8 C4 6.68 4 5.36 4 4 C6.64 4 9.28 4 12 4 C12 3.01 12 2.02 12 1 C8.04 1 4.08 1 0 1 C0 0.67 0 0.34 0 0 Z " fill="#ADB0BE" transform="translate(378,303)"/>
<path d="M0 0 C1.65 0 3.3 0 5 0 C4.45156876 3.83901868 2.7234735 5.36163505 0 8 C-0.33 8.99 -0.66 9.98 -1 11 C-2.65 11 -4.3 11 -6 11 C-6.33 11.66 -6.66 12.32 -7 13 C-8.32 12.34 -9.64 11.68 -11 11 C-10.67 8.69 -10.34 6.38 -10 4 C-6.56484998 3.37542727 -3.50935186 3 0 3 C0 2.01 0 1.02 0 0 Z " fill="#F8FAF5" transform="translate(322,304)"/>
<path d="M0 0 C4.95 0 9.9 0 15 0 C14.67 0.99 14.34 1.98 14 3 C12.35 3 10.7 3 9 3 C9 7.62 9 12.24 9 17 C7.68 17 6.36 17 5 17 C5 12.38 5 7.76 5 3 C3.35 3 1.7 3 0 3 C0 2.01 0 1.02 0 0 Z " fill="#070933" transform="translate(122,304)"/>
<path d="M0 0 C1.32 0.66 2.64 1.32 4 2 C4.17942163 5.94727588 4.09350689 8.5980513 2 12 C3.32 12.66 4.64 13.32 6 14 C6 14.99 6 15.98 6 17 C3.75 17.3125 3.75 17.3125 1 17 C-1.1875 14.625 -1.1875 14.625 -3 12 C-3.66 11.34 -4.32 10.68 -5 10 C-4.34 9.34 -3.68 8.68 -3 8 C-3.66 7.67 -4.32 7.34 -5 7 C-5 5.68 -5 4.36 -5 3 C-3.35 3 -1.7 3 0 3 C0 2.01 0 1.02 0 0 Z " fill="#1A1E4A" transform="translate(69,304)"/>
<path d="M0 0 C0.598125 0.165 1.19625 0.33 1.8125 0.5 C4.11344336 1.1114124 4.11344336 1.1114124 7 1 C7.66 1.33 8.32 1.66 9 2 C8 5 8 5 5.5 6.8125 C2.80346711 8.82819435 2.80346711 8.82819435 1.875 11.9375 C1.68147025 15.225812 1.68147025 15.225812 4.4375 17.6875 C5.283125 18.450625 6.12875 19.21375 7 20 C7 20.99 7 21.98 7 23 C5.0625 22.25 5.0625 22.25 3 21 C2.25 18.875 2.25 18.875 2 17 C1.34 17 0.68 17 0 17 C-1.17076699 13.01939223 -2.25749403 9.08378283 -3 5 C-2.01 4.67 -1.02 4.34 0 4 C0 3.01 0 2.02 0 1 C0 0.67 0 0.34 0 0 Z " fill="#F2F5F6" transform="translate(241,200)"/>
<path d="M0 0 C3.96 0 7.92 0 12 0 C13.28571429 8.57142857 13.28571429 8.57142857 12 12 C12.66 12.33 13.32 12.66 14 13 C13.34 13 12.68 13 12 13 C12 14.65 12 16.3 12 18 C11.67 17.01 11.34 16.02 11 15 C8.36 15 5.72 15 3 15 C3 13.68 3 12.36 3 11 C5.64 11 8.28 11 11 11 C11 9.68 11 8.36 11 7 C8.69 7 6.38 7 4 7 C4 6.01 4 5.02 4 4 C6.31 4 8.62 4 11 4 C11 3.01 11 2.02 11 1 C7.37 1 3.74 1 0 1 C0 0.67 0 0.34 0 0 Z " fill="#C4C9D3" transform="translate(83,303)"/>
<path d="M0 0 C2.97 0 5.94 0 9 0 C9 0.99 9 1.98 9 3 C7.35 3.33 5.7 3.66 4 4 C3.67 7.3 3.34 10.6 3 14 C5.31 14 7.62 14 10 14 C9.01 14.495 9.01 14.495 8 15 C8 15.66 8 16.32 8 17 C5.36 17 2.72 17 0 17 C0 11.39 0 5.78 0 0 Z " fill="#060836" transform="translate(205,304)"/>
<path d="M0 0 C1.65 0 3.3 0 5 0 C5 1.32 5 2.64 5 4 C3.02 4.99 3.02 4.99 1 6 C2.98 6 4.96 6 7 6 C7.268125 6.639375 7.53625 7.27875 7.8125 7.9375 C8.88667752 10.33131686 8.88667752 10.33131686 12 11 C12 11.99 12 12.98 12 14 C9.25 14.3125 9.25 14.3125 6 14 C3.625 11.5 3.625 11.5 2 9 C1.67 10.65 1.34 12.3 1 14 C0.67 14 0.34 14 0 14 C0 12.02 0 10.04 0 8 C-0.66 8 -1.32 8 -2 8 C-1.34 5.36 -0.68 2.72 0 0 Z " fill="#212451" transform="translate(253,307)"/>
<path d="M0 0 C2.5 0.25 2.5 0.25 4.5 2.25 C4.83661952 5.4142235 4.99943411 7.43513382 3.3125 10.1875 C1.5 11.25 1.5 11.25 -1.125 11 C-3.5 10.25 -3.5 10.25 -4.5 9.25 C-4.6875 5.8125 -4.6875 5.8125 -4.5 2.25 C-2.5 0.25 -2.5 0.25 0 0 Z " fill="#E9ECEE" transform="translate(187.5,306.75)"/>
<path d="M0 0 C10.75 -0.125 10.75 -0.125 13 1 C13.4140625 3.06640625 13.4140625 3.06640625 13.625 5.5625 C13.69976562 6.38878906 13.77453125 7.21507812 13.8515625 8.06640625 C13.90054687 8.70449219 13.94953125 9.34257812 14 10 C13.01 10.495 13.01 10.495 12 11 C11.814375 10.05125 11.62875 9.1025 11.4375 8.125 C10.26599195 4.61628301 10.26599195 4.61628301 6.375 3.625 C5.26125 3.41875 4.1475 3.2125 3 3 C3 5.97 3 8.94 3 12 C2.01 12.33 1.02 12.66 0 13 C0 8.71 0 4.42 0 0 Z " fill="#060B39" transform="translate(354,304)"/>
<path d="M0 0 C0 0.99 0 1.98 0 3 C-1.65 3.66 -3.3 4.32 -5 5 C-5.48489837 10.13725982 -5.48489837 10.13725982 -3 14.4375 C-2.34 14.953125 -1.68 15.46875 -1 16 C-6.50309598 16.36687307 -6.50309598 16.36687307 -8.671875 14.765625 C-10.76954004 11.97696442 -10.47435871 9.54646737 -10.34765625 6.1640625 C-10 4 -10 4 -8.375 1.4375 C-5.40106977 -0.3625104 -3.41756151 -0.31068741 0 0 Z " fill="#121544" transform="translate(189,304)"/>
<path d="M0 0 C0.66 0.33 1.32 0.66 2 1 C1.01 2.32 0.02 3.64 -1 5 C-0.34 5.66 0.32 6.32 1 7 C0.401875 7.103125 -0.19625 7.20625 -0.8125 7.3125 C-4.18795481 8.37335723 -5.52629909 10.12739306 -7.1875 13.1875 C-7.455625 13.785625 -7.72375 14.38375 -8 15 C-12 10.375 -12 10.375 -12 7 C-11.21753906 6.57847656 -10.43507813 6.15695313 -9.62890625 5.72265625 C-8.61699219 5.17480469 -7.60507812 4.62695312 -6.5625 4.0625 C-5.55316406 3.51722656 -4.54382813 2.97195312 -3.50390625 2.41015625 C-1.13329507 1.22300532 -1.13329507 1.22300532 0 0 Z " fill="#EDEFF2" transform="translate(275,199)"/>
<path d="M0 0 C1.18802719 0.0199855 2.37605438 0.03997101 3.6000824 0.06056213 C4.58053528 0.07497345 4.58053528 0.07497345 5.58079529 0.0896759 C7.7506604 0.12277147 9.92033073 0.16306307 12.09007263 0.2033844 C13.59079289 0.22767523 15.09152044 0.25151929 16.59225464 0.27493286 C20.54941593 0.33787713 24.50644871 0.40691422 28.46348572 0.47718811 C32.49846017 0.54777842 36.53352602 0.61265097 40.56858826 0.67799377 C48.49121546 0.80713933 56.41371607 0.94271676 64.33616638 1.08229065 C64.33616638 1.41229065 64.33616638 1.74229065 64.33616638 2.08229065 C55.76557139 2.2591327 47.19486511 2.42509616 38.62379646 2.57706642 C34.64416578 2.64797192 30.66468036 2.72266276 26.68528748 2.80592346 C22.84696148 2.88609469 19.00857113 2.95642841 15.16993332 3.01986313 C13.7034068 3.04584272 12.23693932 3.07540303 10.7705574 3.10855484 C8.72101475 3.15428669 6.67163405 3.18743027 4.62181091 3.21754456 C3.45376923 3.23975067 2.28572754 3.26195679 1.08229065 3.28483582 C-1.66383362 3.08229065 -1.66383362 3.08229065 -3.66383362 1.08229065 C-2.66383362 0.08229065 -2.66383362 0.08229065 0 0 Z " fill="#EBEDFD" transform="translate(183.66383361816406,128.91770935058594)"/>
<path d="M0 0 C5.75 0.75 5.75 0.75 8 3 C8.25 5.5 8.25 5.5 8 8 C6 10 6 10 2.875 10.125 C1.451875 10.063125 1.451875 10.063125 0 10 C0 6.7 0 3.4 0 0 Z " fill="#F6F6F9" transform="translate(209,307)"/>
<path d="M0 0 C1.8125 1.375 1.8125 1.375 3 3 C3 3.66 3 4.32 3 5 C0.36 4.67 -2.28 4.34 -5 4 C-5 4.99 -5 5.98 -5 7 C-4.34 7 -3.68 7 -3 7 C-3.33 8.32 -3.66 9.64 -4 11 C-6.475 10.01 -6.475 10.01 -9 9 C-9.25 6.1875 -9.25 6.1875 -9 3 C-6.30254095 0.00282328 -3.95012118 -0.60771095 0 0 Z " fill="#232557" transform="translate(112,303)"/>
<path d="M0 0 C1.65 0 3.3 0 5 0 C7 2 7 2 7.1875 5.5625 C7 9 7 9 6 10 C4.00041636 10.04080783 1.99954746 10.04254356 0 10 C0 6.7 0 3.4 0 0 Z " fill="#F0F2F6" transform="translate(358,307)"/>
<path d="M0 0 C1.32 0 2.64 0 4 0 C4 5.61 4 11.22 4 17 C3.01 17 2.02 17 1 17 C0.8046875 14.94921875 0.609375 12.8984375 0.4140625 10.84765625 C0.20910156 9.93306641 0.20910156 9.93306641 0 9 C-0.66 8.67 -1.32 8.34 -2 8 C-1.67 7.01 -1.34 6.02 -1 5 C-0.65179959 3.33637583 -0.31595508 1.67004829 0 0 Z " fill="#090B3A" transform="translate(414,304)"/>
<path d="M0 0 C2.375 2 2.375 2 4 4 C1.48828873 5.58144783 0.36863138 6.05266163 -2.625 5.625 C-3.40875 5.41875 -4.1925 5.2125 -5 5 C-5.66 5 -6.32 5 -7 5 C-7 5.66 -7 6.32 -7 7 C-8.65 7.33 -10.3 7.66 -12 8 C-9.92951474 1.61600377 -6.88248866 -1.00369626 0 0 Z " fill="#27294E" transform="translate(168,303)"/>
<path d="M0 0 C2.31 0.33 4.62 0.66 7 1 C6.67 1.99 6.34 2.98 6 4 C6.99 4 7.98 4 9 4 C9.33 3.34 9.66 2.68 10 2 C10.33 1.67 10.66 1.34 11 1 C11.66 1 12.32 1 13 1 C13.05422947 2.4370809 13.09289723 3.87475462 13.125 5.3125 C13.14820313 6.11300781 13.17140625 6.91351563 13.1953125 7.73828125 C13 10 13 10 11 13 C10.34 13 9.68 13 9 13 C7.8515625 11.42578125 7.8515625 11.42578125 6.625 9.3125 C4.63457463 5.9872493 2.50491352 2.9687864 0 0 Z " fill="#0C0F4C" transform="translate(258,144)"/>
<path d="M0 0 C2.25597827 2.25597827 2.96574192 4.04603867 4.125 7 C4.47820312 7.886875 4.83140625 8.77375 5.1953125 9.6875 C6 12 6 12 6 14 C4.68 14 3.36 14 2 14 C1.34 12.02 0.68 10.04 0 8 C-1.65 7.67 -3.3 7.34 -5 7 C-4.34 5.35 -3.68 3.7 -3 2 C-2.01 2.33 -1.02 2.66 0 3 C0 2.01 0 1.02 0 0 Z " fill="#414666" transform="translate(294,307)"/>
<path d="M0 0 C0.33 0 0.66 0 1 0 C1 5.61 1 11.22 1 17 C-1 13 -1 13 -1 10 C-3.97 9.505 -3.97 9.505 -7 9 C-6.34 7.68 -5.68 6.36 -5 5 C-4.01 5 -3.02 5 -2 5 C-1.34 3.35 -0.68 1.7 0 0 Z M-3 13 C-2.34 13.33 -1.68 13.66 -1 14 C-1.99 14 -2.98 14 -4 14 C-3.67 13.67 -3.34 13.34 -3 13 Z " fill="#E2E2EC" transform="translate(353,304)"/>
<path d="M0 0 C0.66 0 1.32 0 2 0 C2.87656469 2.45438114 3.15930238 3.59561703 2.1875 6.0625 C1.16380191 7.73274425 0.08665664 9.37001504 -1 11 C-1.020625 10.401875 -1.04125 9.80375 -1.0625 9.1875 C-1.90456616 6.56685398 -1.90456616 6.56685398 -5.5625 5.25 C-6.696875 4.8375 -7.83125 4.425 -9 4 C-9 3.01 -9 2.02 -9 1 C-7.700625 1.020625 -6.40125 1.04125 -5.0625 1.0625 C-3.70834367 1.08399454 -2.35243917 1.07148199 -1 1 C-0.67 0.67 -0.34 0.34 0 0 Z " fill="#DBE1EC" transform="translate(116,306)"/>
<path d="M0 0 C0.33 0.66 0.66 1.32 1 2 C1.99 2.33 2.98 2.66 4 3 C5.1875 6.0625 5.1875 6.0625 6 9 C-0.75 10.125 -0.75 10.125 -3 9 C-2.01 6.03 -1.02 3.06 0 0 Z " fill="#4B5074" transform="translate(334,306)"/>
<path d="M0 0 C3 3.625 3 3.625 3 7 C3.66 7.33 4.32 7.66 5 8 C4.67 10.31 4.34 12.62 4 15 C3.34 14.67 2.68 14.34 2 14 C2 12.68 2 11.36 2 10 C0.68 9.67 -0.64 9.34 -2 9 C-2 5.20442119 -1.49821059 3.37097383 0 0 Z " fill="#E3E8EB" transform="translate(73,308)"/>
<path d="M0 0 C0.70125 0.804375 1.4025 1.60875 2.125 2.4375 C5.26291593 5.23433811 6.88758763 5.71308751 11 6 C11.33 5.01 11.66 4.02 12 3 C12 3.66 12 4.32 12 5 C12.66 5 13.32 5 14 5 C14 5.66 14 6.32 14 7 C12.35 7.66 10.7 8.32 9 9 C9 8.34 9 7.68 9 7 C8.34 7 7.68 7 7 7 C7 7.66 7 8.32 7 9 C5.02 8.34 3.04 7.68 1 7 C0.67 4.69 0.34 2.38 0 0 Z " fill="#F0F1F7" transform="translate(254,315)"/>
<path d="M0 0 C0.66 0.33 1.32 0.66 2 1 C2 2.32 2 3.64 2 5 C4.64 5 7.28 5 10 5 C10 5.99 10 6.98 10 8 C6.37 8 2.74 8 -1 8 C-1.04241723 5.66705225 -1.04092937 3.33297433 -1 1 C-0.67 0.67 -0.34 0.34 0 0 Z " fill="#090938" transform="translate(84,313)"/>
<path d="M0 0 C4.29 0 8.58 0 13 0 C13.33 1.98 13.66 3.96 14 6 C13 7 13 7 10.93359375 7.09765625 C10.10988281 7.08605469 9.28617187 7.07445312 8.4375 7.0625 C7.61121094 7.05347656 6.78492188 7.04445313 5.93359375 7.03515625 C5.29550781 7.02355469 4.65742188 7.01195312 4 7 C4 6.01 4 5.02 4 4 C6.64 4 9.28 4 12 4 C12 3.01 12 2.02 12 1 C8.04 1 4.08 1 0 1 C0 0.67 0 0.34 0 0 Z " fill="#DADDE3" transform="translate(378,303)"/>
<path d="M0 0 C1.32 0.33 2.64 0.66 4 1 C3.01 4.3 2.02 7.6 1 11 C1.66 11 2.32 11 3 11 C3 12.98 3 14.96 3 17 C2.01 17 1.02 17 0 17 C0 11.39 0 5.78 0 0 Z " fill="#07093D" transform="translate(250,304)"/>
<path d="M0 0 C0.69222656 0.07605469 1.38445312 0.15210938 2.09765625 0.23046875 C3.9375 0.8125 3.9375 0.8125 5.9375 3.8125 C3.44340939 5.38285335 2.23306584 5.8399945 -0.75 5.5625 C-1.513125 5.315 -2.27625 5.0675 -3.0625 4.8125 C-3.3925 4.1525 -3.7225 3.4925 -4.0625 2.8125 C-5.0525 2.4825 -6.0425 2.1525 -7.0625 1.8125 C-3.90703684 -0.29114211 -3.50162739 -0.45161176 0 0 Z " fill="#292C53" transform="translate(317.0625,303.1875)"/>
<path d="M0 0 C1.65 0 3.3 0 5 0 C5 1.32 5 2.64 5 4 C3.02 4.99 3.02 4.99 1 6 C1.33 6.66 1.66 7.32 2 8 C1.71887936 10.00800456 1.38932033 12.01014051 1 14 C0.67 14 0.34 14 0 14 C0 12.02 0 10.04 0 8 C-0.66 8 -1.32 8 -2 8 C-1.34 5.36 -0.68 2.72 0 0 Z " fill="#282A5E" transform="translate(253,307)"/>
<path d="M0 0 C0.99 0 1.98 0 3 0 C2.01 1.485 2.01 1.485 1 3 C-1.03039402 2.96777152 -3.06128092 2.93188381 -5.08984375 2.83984375 C-7.24385229 2.81348256 -7.24385229 2.81348256 -9 5 C-9.33 5.66 -9.66 6.32 -10 7 C-9.74438677 4.6568787 -9.40729228 2.32156597 -9 0 C-5.93652871 -1.53173564 -3.31441515 -0.52332871 0 0 Z " fill="#EEF1F5" transform="translate(321,308)"/>
<path d="M0 0 C0.99 0.33 1.98 0.66 3 1 C3.33 3.31 3.66 5.62 4 8 C2.824375 7.690625 2.824375 7.690625 1.625 7.375 C0.325625 7.189375 0.325625 7.189375 -1 7 C-1.66 7.66 -2.32 8.32 -3 9 C-3.66 9 -4.32 9 -5 9 C-5.66 7.35 -6.32 5.7 -7 4 C-5.35 4 -3.7 4 -2 4 C-2 3.34 -2 2.68 -2 2 C-1.34 2 -0.68 2 0 2 C0 1.34 0 0.68 0 0 Z " fill="#06094F" transform="translate(227,207)"/>
<path d="M0 0 C0.66 0.66 1.32 1.32 2 2 C2.66 2.33 3.32 2.66 4 3 C3.67 3.99 3.34 4.98 3 6 C1.63875 5.9690625 1.63875 5.9690625 0.25 5.9375 C-2.42672588 5.9889755 -4.46988052 6.2215017 -7 7 C-7 7.66 -7 8.32 -7 9 C-7.66 9 -8.32 9 -9 9 C-7.48328036 4.44984107 -3.83108947 2.49942736 0 0 Z " fill="#121643" transform="translate(252,202)"/>
<path d="M0 0 C-0.99 0.495 -0.99 0.495 -2 1 C-2 2.65 -2 4.3 -2 6 C-2.33 5.01 -2.66 4.02 -3 3 C-5.64 3 -8.28 3 -11 3 C-11 1.68 -11 0.36 -11 -1 C-3.375 -2.25 -3.375 -2.25 0 0 Z " fill="#D1D7E0" transform="translate(244,315)"/>
<path d="M0 0 C1.65 0.33 3.3 0.66 5 1 C5 2.65 5 4.3 5 6 C4.01 6 3.02 6 2 6 C1.01 7.485 1.01 7.485 0 9 C-0.99 8.34 -1.98 7.68 -3 7 C-2.01 4.69 -1.02 2.38 0 0 Z " fill="#111450" transform="translate(289,304)"/>
<path d="M0 0 C2.97 0.495 2.97 0.495 6 1 C4.68 1.33 3.36 1.66 2 2 C2 3.32 2 4.64 2 6 C2.99 6.33 3.98 6.66 5 7 C4.34 7.66 3.68 8.32 3 9 C2.35232207 11.57061311 2.35232207 11.57061311 2 14 C1.34 14 0.68 14 0 14 C0 9.38 0 4.76 0 0 Z " fill="#0A0E44" transform="translate(62,305)"/>
<path d="M0 0 C0.33 0.99 0.66 1.98 1 3 C3.97 3 6.94 3 10 3 C10 3.66 10 4.32 10 5 C7.09451118 7.04169485 5.59857954 8 2 8 C0.25 6.8125 0.25 6.8125 -1 5 C-0.6875 2.3125 -0.6875 2.3125 0 0 Z " fill="#F6F6FA" transform="translate(377,318)"/>
<path d="M0 0 C2.64 0 5.28 0 8 0 C8 0.33 8 0.66 8 1 C5.69 1 3.38 1 1 1 C1 6.61 1 12.22 1 18 C0.67 18 0.34 18 0 18 C-0.2475 16.72125 -0.495 15.4425 -0.75 14.125 C-1.51990586 10.73252682 -1.51990586 10.73252682 -4.125 8.5 C-4.74375 8.335 -5.3625 8.17 -6 8 C-2.25 6.875 -2.25 6.875 0 8 C0 5.36 0 2.72 0 0 Z " fill="#D9DBE9" transform="translate(249,303)"/>
<path d="M0 0 C3.69536586 0.28425891 6.3214771 0.5476514 9.4375 2.625 C11.5520177 5.83906691 11.28959898 8.23521325 11 12 C10.34 11.34 9.68 10.68 9 10 C9 8.68 9 7.36 9 6 C7.68 5.67 6.36 5.34 5 5 C4.67 3.68 4.34 2.36 4 1 C2.68 0.67 1.36 0.34 0 0 Z " fill="#24284F" transform="translate(185,303)"/>
<path d="M0 0 C3.2626876 3.08632611 6.02235218 5.93483504 8 10 C7.67 10.66 7.34 11.32 7 12 C6.34 12 5.68 12 5 12 C4.731875 11.38125 4.46375 10.7625 4.1875 10.125 C3.04443152 7.7004767 3.04443152 7.7004767 0 6 C-0.75 3.4375 -0.75 3.4375 -1 1 C-0.67 0.67 -0.34 0.34 0 0 Z " fill="#131548" transform="translate(282,239)"/>
<path d="M0 0 C0.66 0.33 1.32 0.66 2 1 C0.35 4.96 -1.3 8.92 -3 13 C-3.99 12.01 -4.98 11.02 -6 10 C-6 6.21700564 -5.01235583 5.01356127 -2.4375 2.1875 C-1.2309375 1.1046875 -1.2309375 1.1046875 0 0 Z " fill="#EDF0F9" transform="translate(287,305)"/>
<path d="M0 0 C0.99 0 1.98 0 3 0 C2.896875 0.886875 2.79375 1.77375 2.6875 2.6875 C3.09655893 7.02352461 4.88284896 8.11663528 8 11 C8 11.99 8 12.98 8 14 C6.0625 13.25 6.0625 13.25 4 12 C3.25 9.875 3.25 9.875 3 8 C2.34 8 1.68 8 1 8 C0.67 5.36 0.34 2.72 0 0 Z " fill="#E0E2EB" transform="translate(240,209)"/>
<path d="M0 0 C2.18975773 3.28463659 2.99806563 6.20696275 4 10 C2.68 10 1.36 10 0 10 C-0.33 9.34 -0.66 8.68 -1 8 C-2.89533342 7.53476937 -2.89533342 7.53476937 -5.0625 7.375 C-6.361875 7.25125 -7.66125 7.1275 -9 7 C-9 6.67 -9 6.34 -9 6 C-6.03 6 -3.06 6 0 6 C0 4.02 0 2.04 0 0 Z " fill="#36395C" transform="translate(342,311)"/>
<path d="M0 0 C0.33 0 0.66 0 1 0 C1.36075949 5.41139241 1.36075949 5.41139241 -0.1875 7.9375 C-2 9 -2 9 -4.6875 8.6875 C-5.450625 8.460625 -6.21375 8.23375 -7 8 C-6 5 -6 5 -3.9375 3.8125 C-3.298125 3.544375 -2.65875 3.27625 -2 3 C-2 3.66 -2 4.32 -2 5 C-1.34 5 -0.68 5 0 5 C0 3.35 0 1.7 0 0 Z " fill="#DCDFEC" transform="translate(191,309)"/>
<path d="M0 0 C5.75 -0.125 5.75 -0.125 8 1 C9.70363822 1.22622081 11.41328701 1.40888473 13.125 1.5625 C14.03507812 1.64628906 14.94515625 1.73007812 15.8828125 1.81640625 C16.58148438 1.87699219 17.28015625 1.93757813 18 2 C18 2.33 18 2.66 18 3 C11.45688671 3.87557031 6.23352019 4.3548854 0 2 C0 1.34 0 0.68 0 0 Z " fill="#151946" transform="translate(292,274)"/>
<path d="M0 0 C0.66 0.33 1.32 0.66 2 1 C3.00376838 5.0150735 3.40779739 7.16667491 1.5625 10.9375 C0.7890625 11.9584375 0.7890625 11.9584375 0 13 C-2.29013653 9.5647952 -2.17842973 8.014669 -2 4 C-1.34 5.32 -0.68 6.64 0 8 C0 5.36 0 2.72 0 0 Z " fill="#31365A" transform="translate(367,306)"/>
<path d="M0 0 C4.95 0.99 4.95 0.99 10 2 C10 2.99 10 3.98 10 5 C6.7 5 3.4 5 0 5 C0 3.35 0 1.7 0 0 Z " fill="#10123F" transform="translate(231,309)"/>
<path d="M0 0 C0.33 0.99 0.66 1.98 1 3 C3.64 3 6.28 3 9 3 C9 3.99 9 4.98 9 6 C5.37 6 1.74 6 -2 6 C-1.34 5.34 -0.68 4.68 0 4 C0 2.68 0 1.36 0 0 Z " fill="#09092E" transform="translate(381,315)"/>
<path d="M0 0 C0.99 0.495 0.99 0.495 2 1 C1.87625 1.7425 1.7525 2.485 1.625 3.25 C1.74875 4.1575 1.8725 5.065 2 6 C4.92321965 8.28239171 4.92321965 8.28239171 8 10 C8 10.33 8 10.66 8 11 C5.125 11.125 5.125 11.125 2 11 C0 9 0 9 -0.1953125 6.8359375 C-0.17210937 6.02382813 -0.14890625 5.21171875 -0.125 4.375 C-0.10695312 3.55773437 -0.08890625 2.74046875 -0.0703125 1.8984375 C-0.04710937 1.27195312 -0.02390625 0.64546875 0 0 Z " fill="#080B3F" transform="translate(180,309)"/>
<path d="M0 0 C2.31 0 4.62 0 7 0 C7.33 2.64 7.66 5.28 8 8 C6.85073734 7.04578192 5.70569459 6.08647955 4.5625 5.125 C3.92441406 4.59132813 3.28632813 4.05765625 2.62890625 3.5078125 C1 2 1 2 0 0 Z " fill="#ECEFF7" transform="translate(296,257)"/>
<path d="M0 0 C0.66 1.32 1.32 2.64 2 4 C2.33 4.33 2.66 4.66 3 5 C3.04092937 7.33297433 3.04241723 9.66705225 3 12 C2.34 12 1.68 12 1 12 C0.67 12.66 0.34 13.32 0 14 C0 9.38 0 4.76 0 0 Z " fill="#272852" transform="translate(127,307)"/>
<path d="M0 0 C2.31 0 4.62 0 7 0 C7 2.97 7 5.94 7 9 C4.03595495 6.19195732 1.55500981 3.81684226 0 0 Z " fill="#121547" transform="translate(271,256)"/>
<path d="M0 0 C0.66 0 1.32 0 2 0 C3.5078125 1.8984375 3.5078125 1.8984375 5.125 4.375 C5.66382813 5.18710938 6.20265625 5.99921875 6.7578125 6.8359375 C8 9 8 9 8 11 C7.01 11 6.02 11 5 11 C4.67 9.35 4.34 7.7 4 6 C3.34 6 2.68 6 2 6 C2 5.34 2 4.68 2 4 C1.34 4 0.68 4 0 4 C0 2.68 0 1.36 0 0 Z " fill="#E4E8F2" transform="translate(258,239)"/>
<path d="M0 0 C2.31 0.33 4.62 0.66 7 1 C6.67 1.99 6.34 2.98 6 4 C7.32 4.66 8.64 5.32 10 6 C9.01 6.495 9.01 6.495 8 7 C7.67 7.66 7.34 8.32 7 9 C5.83037314 7.69013727 4.66437056 6.3770374 3.5 5.0625 C2.8503125 4.33160156 2.200625 3.60070312 1.53125 2.84765625 C0 1 0 1 0 0 Z " fill="#181A51" transform="translate(258,144)"/>
<path d="M0 0 C2.31 0.33 4.62 0.66 7 1 C7.33 3.97 7.66 6.94 8 10 C7.01 10.495 7.01 10.495 6 11 C5.34 8.03 4.68 5.06 4 2 C2.68 1.67 1.36 1.34 0 1 C0 0.67 0 0.34 0 0 Z " fill="#131747" transform="translate(360,304)"/>
<path d="M0 0 C2.76276177 0.52268466 5.3260876 1.10869587 8 2 C8 2.99 8 3.98 8 5 C3.48279689 5.36625971 3.48279689 5.36625971 1.1875 3.625 C0 2 0 2 0 0 Z " fill="#0E0F3A" transform="translate(67,316)"/>
<path d="M0 0 C2.31 0.33 4.62 0.66 7 1 C7.33 2.65 7.66 4.3 8 6 C7.01 6 6.02 6 5 6 C5 5.34 5 4.68 5 4 C2.525 3.01 2.525 3.01 0 2 C0 1.34 0 0.68 0 0 Z " fill="#0E103B" transform="translate(107,311)"/>
<path d="M0 0 C1.33855056 0.78281305 2.67073644 1.57651877 4 2.375 C5.11375 3.03628906 5.11375 3.03628906 6.25 3.7109375 C6.8275 4.13632812 7.405 4.56171875 8 5 C8 5.66 8 6.32 8 7 C7.34 7 6.68 7 6 7 C6 6.34 6 5.68 6 5 C3.69 5.33 1.38 5.66 -1 6 C-1.33 5.34 -1.66 4.68 -2 4 C-1.34 3.67 -0.68 3.34 0 3 C0 2.01 0 1.02 0 0 Z " fill="#14184D" transform="translate(303,265)"/>
<path d="M0 0 C0.2475 0.556875 0.495 1.11375 0.75 1.6875 C1.99199765 4.15464798 1.99199765 4.15464798 4.125 6.625 C6 9 6 9 6 11 C6.66 11 7.32 11 8 11 C8 11.66 8 12.32 8 13 C4.44218458 12.03842826 3.21983346 11.34112089 1.1875 8.1875 C0.05759991 5.15461027 -0.28140158 3.18921789 0 0 Z " fill="#2A2D54" transform="translate(213,205)"/>
<path d="M0 0 C0.66 0 1.32 0 2 0 C0.8905928 3.48670834 -0.26337666 6.77484237 -2 10 C-3.32 9.34 -4.64 8.68 -6 8 C-5.04956626 6.66102417 -4.08940853 5.32894573 -3.125 4 C-2.59132813 3.2575 -2.05765625 2.515 -1.5078125 1.75 C-1.01023437 1.1725 -0.51265625 0.595 0 0 Z " fill="#EBEEF4" transform="translate(286,187)"/>
<path d="M0 0 C0.66 0.33 1.32 0.66 2 1 C1.54917531 2.46067199 1.08906463 3.91848032 0.625 5.375 C0.36976563 6.18710938 0.11453125 6.99921875 -0.1484375 7.8359375 C-1 10 -1 10 -3 12 C-3.33 10.35 -3.66 8.7 -4 7 C-3.01 6.67 -2.02 6.34 -1 6 C-0.67 4.02 -0.34 2.04 0 0 Z " fill="#181C44" transform="translate(288,177)"/>
<path d="M0 0 C0.66 0 1.32 0 2 0 C2.87656469 2.45438114 3.15930238 3.59561703 2.1875 6.0625 C1.16380191 7.73274425 0.08665664 9.37001504 -1 11 C-2.0257259 6.58937864 -2.03684712 4.07369424 0 0 Z " fill="#EEF0EB" transform="translate(116,306)"/>
<path d="M0 0 C2.475 0.99 2.475 0.99 5 2 C2.31158141 4.25245881 0.35358125 5.88213958 -3 7 C-2.67 5.35 -2.34 3.7 -2 2 C-1.34 2 -0.68 2 0 2 C0 1.34 0 0.68 0 0 Z " fill="#EFF1F3" transform="translate(287,273)"/>
<path d="M0 0 C1.32 0.66 2.64 1.32 4 2 C4 2.66 4 3.32 4 4 C4.99 5.485 4.99 5.485 6 7 C1.61031544 7 0.23094261 4.87194899 -3 2 C-2.01 1.34 -1.02 0.68 0 0 Z " fill="#EBEFF7" transform="translate(279,137)"/>
<path d="M0 0 C0.33 0.66 0.66 1.32 1 2 C1.66 1.67 2.32 1.34 3 1 C5.3329866 0.95977609 7.66706666 0.95679753 10 1 C9.01 1.495 9.01 1.495 8 2 C8 2.66 8 3.32 8 4 C5.36 4 2.72 4 0 4 C0 2.68 0 1.36 0 0 Z " fill="#080C2A" transform="translate(205,317)"/>
<path d="M0 0 C0 0.99 0 1.98 0 3 C-1.65 3.33 -3.3 3.66 -5 4 C-5 2.68 -5 1.36 -5 0 C-6.32 -0.33 -7.64 -0.66 -9 -1 C-5.79937313 -2.60031344 -3.27728194 -1.03173691 0 0 Z " fill="#F7F8EB" transform="translate(352,314)"/>
<path d="M0 0 C2.64 0 5.28 0 8 0 C7.01 0.66 6.02 1.32 5 2 C5.99 2.66 6.98 3.32 8 4 C5.36 4 2.72 4 0 4 C0 2.68 0 1.36 0 0 Z " fill="#C1C6DB" transform="translate(233,307)"/>
<path d="M0 0 C1.98 0 3.96 0 6 0 C5.319375 0.5259375 5.319375 0.5259375 4.625 1.0625 C2.35338666 3.77096206 1.83201146 6.60795328 1 10 C0.67 10 0.34 10 0 10 C0 6.7 0 3.4 0 0 Z " fill="#090946" transform="translate(206,305)"/>
<path d="M0 0 C1.32 0 2.64 0 4 0 C4.66 1.32 5.32 2.64 6 4 C7.65 3.67 9.3 3.34 11 3 C9 6 9 6 7.1875 7 C5 7 5 7 2.25 4.6875 C0 2 0 2 0 0 Z " fill="#111249" transform="translate(242,213)"/>
<path d="M0 0 C2.64 0 5.28 0 8 0 C8 0.99 8 1.98 8 3 C5.36 3 2.72 3 0 3 C0 2.01 0 1.02 0 0 Z " fill="#F2F7FE" transform="translate(382,314)"/>
<path d="M0 0 C0.66 0 1.32 0 2 0 C3.35439668 2.70879335 3.06501451 5.00933268 3 8 C2.01 8.33 1.02 8.66 0 9 C0 6.03 0 3.06 0 0 Z " fill="#070644" transform="translate(354,308)"/>
<path d="M0 0 C2.475 0.99 2.475 0.99 5 2 C5 2.66 5 3.32 5 4 C6.32 3.67 7.64 3.34 9 3 C8.34 4.32 7.68 5.64 7 7 C4.13302508 5.71480435 2.02392288 4.42870746 0 2 C0 1.34 0 0.68 0 0 Z " fill="#07093B" transform="translate(278,264)"/>
<path d="M0 0 C-3.75 3 -3.75 3 -6 3 C-6.33 3.66 -6.66 4.32 -7 5 C-7.33 3.35 -7.66 1.7 -8 0 C-4.71023192 -1.09658936 -3.28696233 -0.79953138 0 0 Z " fill="#12154E" transform="translate(269,203)"/>
<path d="M0 0 C0.99 0.66 1.98 1.32 3 2 C1.87926138 2.83905565 0.75325453 3.67107831 -0.375 4.5 C-1.00148438 4.9640625 -1.62796875 5.428125 -2.2734375 5.90625 C-4 7 -4 7 -6 7 C-5.8125 5.1875 -5.8125 5.1875 -5 3 C-2.4375 1.25 -2.4375 1.25 0 0 Z " fill="#191C44" transform="translate(275,196)"/>
<path d="M0 0 C2.60018816 3.90028225 2.15085514 7.47434569 2 12 C1.01 12.495 1.01 12.495 0 13 C-0.144375 11.88625 -0.28875 10.7725 -0.4375 9.625 C-0.78372035 6.17857953 -0.78372035 6.17857953 -2 4 C-1.0625 1.875 -1.0625 1.875 0 0 Z " fill="#D9DDEA" transform="translate(268,159)"/>
<path d="M0 0 C1.32 0.33 2.64 0.66 4 1 C2.5 3 2.5 3 0 5 C-2.75871627 5.35800135 -5.20097524 5.18660165 -8 5 C-8 4.67 -8 4.34 -8 4 C-5.69 4 -3.38 4 -1 4 C-0.67 2.68 -0.34 1.36 0 0 Z " fill="#1F1F40" transform="translate(168,316)"/>
<path d="M0 0 C0.33 0 0.66 0 1 0 C2.13764351 4.26616316 3 7.56486311 3 12 C2.01 12 1.02 12 0 12 C0 8.04 0 4.08 0 0 Z " fill="#07092E" transform="translate(399,309)"/>
<path d="M0 0 C2.64 0 5.28 0 8 0 C8 0.99 8 1.98 8 3 C5.69 3 3.38 3 1 3 C0.67 2.01 0.34 1.02 0 0 Z " fill="#080A2C" transform="translate(382,304)"/>
<path d="M0 0 C3.82946843 1.45255699 5.12050295 3.42895561 7 7 C6.34 7.66 5.68 8.32 5 9 C1 4.25 1 4.25 1 2 C0.34 1.67 -0.32 1.34 -1 1 C-0.67 0.67 -0.34 0.34 0 0 Z " fill="#151740" transform="translate(292,254)"/>
<path d="M0 0 C1.98 0.66 3.96 1.32 6 2 C4.875 3.5 4.875 3.5 3 5 C-0.1875 5.1875 -0.1875 5.1875 -3 5 C-2.01 4.67 -1.02 4.34 0 4 C0 2.68 0 1.36 0 0 Z " fill="#0E103E" transform="translate(225,213)"/>
<path d="M0 0 C2.9375 1.3125 2.9375 1.3125 6 3 C6.33 3.99 6.66 4.98 7 6 C3.89448334 6 2.64738916 5.4606285 0 4 C0 2.68 0 1.36 0 0 Z " fill="#141545" transform="translate(226,198)"/>
<path d="M0 0 C0.66 0 1.32 0 2 0 C2.66 2.31 3.32 4.62 4 7 C2.68 7.33 1.36 7.66 0 8 C0 5.36 0 2.72 0 0 Z " fill="#C0C6D8" transform="translate(402,313)"/>
<path d="M0 0 C3 3.625 3 3.625 3 7 C1.125 6.6875 1.125 6.6875 -1 6 C-1.66 5.01 -2.32 4.02 -3 3 C-2.01 2.01 -1.02 1.02 0 0 Z " fill="#DFE4EC" transform="translate(262,311)"/>
<path d="M0 0 C-0.33 0.99 -0.66 1.98 -1 3 C-3.97 2.67 -6.94 2.34 -10 2 C-6.3558226 -0.4294516 -4.28758728 -0.16179575 0 0 Z " fill="#0F0F3C" transform="translate(137,304)"/>
<path d="M0 0 C2.31 0 4.62 0 7 0 C7 0.99 7 1.98 7 3 C4.36 3 1.72 3 -1 3 C-0.67 2.01 -0.34 1.02 0 0 Z " fill="#070A2F" transform="translate(87,304)"/>
<path d="M0 0 C2.00720923 0.28674418 4.0085944 0.61866701 6 1 C5.34 2.32 4.68 3.64 4 5 C2.0625 4.6875 2.0625 4.6875 0 4 C-0.33 3.01 -0.66 2.02 -1 1 C-0.67 0.67 -0.34 0.34 0 0 Z " fill="#EFF4F6" transform="translate(280,232)"/>
<path d="M0 0 C1.31223496 3.93670488 0.24296256 6.12488144 -1 10 C-1.66 9.67 -2.32 9.34 -3 9 C-3.625 6.4375 -3.625 6.4375 -4 4 C-3.34 4 -2.68 4 -2 4 C-2 3.34 -2 2.68 -2 2 C-1.34 2 -0.68 2 0 2 C0 1.34 0 0.68 0 0 Z " fill="#E3E6F2" transform="translate(269,177)"/>
<path d="M0 0 C0.66 0 1.32 0 2 0 C4.42857143 7.42857143 4.42857143 7.42857143 3 11 C0 4.5 0 4.5 0 0 Z " fill="#242750" transform="translate(287,153)"/>
<path d="M0 0 C1.32 0 2.64 0 4 0 C4 0.66 4 1.32 4 2 C5.65 2.33 7.3 2.66 9 3 C9 3.66 9 4.32 9 5 C5.37 4.01 1.74 3.02 -2 2 C-1.34 1.34 -0.68 0.68 0 0 Z " fill="#1C2244" transform="translate(247,138)"/>
<path d="M0 0 C2.97 0.495 2.97 0.495 6 1 C6 1.99 6 2.98 6 4 C4.02 4 2.04 4 0 4 C0 2.68 0 1.36 0 0 Z " fill="#191841" transform="translate(259,317)"/>
<path d="M0 0 C1.485 0.99 1.485 0.99 3 2 C3.375 4.5 3.375 4.5 3 7 C2.01 7.66 1.02 8.32 0 9 C0 6 0 3 0 0 Z " fill="#E3E3F2" transform="translate(214,308)"/>
<path d="M0 0 C1.32 0.33 2.64 0.66 4 1 C3.01 2.98 2.02 4.96 1 7 C0.01 5.68 -0.98 4.36 -2 3 C-1.34 2.01 -0.68 1.02 0 0 Z " fill="#20203E" transform="translate(437,304)"/>
<path d="M0 0 C0.66 0 1.32 0 2 0 C2.33 1.32 2.66 2.64 3 4 C3.66 4 4.32 4 5 4 C5 4.66 5 5.32 5 6 C4.01 6.33 3.02 6.66 2 7 C2 6.34 2 5.68 2 5 C1.34 5 0.68 5 0 5 C-0.5625 3.0625 -0.5625 3.0625 -1 1 C-0.67 0.67 -0.34 0.34 0 0 Z " fill="#FAFBF2" transform="translate(241,217)"/>
<path d="M0 0 C3.58050131 4.17255271 3.26656798 6.66864045 3 12 C0.50494038 9.50494038 0.64051624 8.32671112 0.375 4.875 C0.30023438 3.96492187 0.22546875 3.05484375 0.1484375 2.1171875 C0.09945313 1.41851562 0.05046875 0.71984375 0 0 Z " fill="#060934" transform="translate(288,160)"/>
<path d="M0 0 C3 1 3 1 4.1875 3.0625 C4.455625 3.701875 4.72375 4.34125 5 5 C3.35 5.33 1.7 5.66 0 6 C0 4.02 0 2.04 0 0 Z " fill="#D2D8E4" transform="translate(64,315)"/>
<path d="M0 0 C2.31 0 4.62 0 7 0 C7 0.99 7 1.98 7 3 C5.02 3 3.04 3 1 3 C0.67 2.01 0.34 1.02 0 0 Z " fill="#0A0C32" transform="translate(382,311)"/>
<path d="M0 0 C1.65 0 3.3 0 5 0 C5 1.32 5 2.64 5 4 C3.35 4 1.7 4 0 4 C0 2.68 0 1.36 0 0 Z " fill="#D7DDEF" transform="translate(64,307)"/>
<path d="M0 0 C1.65 0 3.3 0 5 0 C5.66 1.32 6.32 2.64 7 4 C4.69 3.67 2.38 3.34 0 3 C0 2.01 0 1.02 0 0 Z " fill="#16193D" transform="translate(108,304)"/>
<path d="M0 0 C1.65 1.65 3.3 3.3 5 5 C3.35 5.33 1.7 5.66 0 6 C0 5.34 0 4.68 0 4 C-0.66 3.67 -1.32 3.34 -2 3 C-1.34 2.01 -0.68 1.02 0 0 Z " fill="#E9EBF1" transform="translate(275,263)"/>
<path d="M0 0 C0.66 0.66 1.32 1.32 2 2 C2.66 2.33 3.32 2.66 4 3 C3.67 3.99 3.34 4.98 3 6 C1.68 6 0.36 6 -1 6 C-1.33 4.35 -1.66 2.7 -2 1 C-1.34 0.67 -0.68 0.34 0 0 Z " fill="#111554" transform="translate(252,202)"/>
<path d="M0 0 C1.65 0.33 3.3 0.66 5 1 C5 1.99 5 2.98 5 4 C3.35 3.67 1.7 3.34 0 3 C0 2.01 0 1.02 0 0 Z " fill="#D9E2EA" transform="translate(106,314)"/>
<path d="M0 0 C1.98 0 3.96 0 6 0 C6.33 0.99 6.66 1.98 7 3 C4.69 3 2.38 3 0 3 C0 2.01 0 1.02 0 0 Z " fill="#F3FCFB" transform="translate(87,314)"/>
<path d="M0 0 C0.66 0.33 1.32 0.66 2 1 C0.68 2.65 -0.64 4.3 -2 6 C-5 5 -5 5 -8 3 C-6.865625 2.690625 -5.73125 2.38125 -4.5625 2.0625 C-1.21224901 1.37075469 -1.21224901 1.37075469 0 0 Z " fill="#E2E1EB" transform="translate(171,318)"/>
<path d="M0 0 C0.66 0.33 1.32 0.66 2 1 C1.67 3.31 1.34 5.62 1 8 C-0.32 7.34 -1.64 6.68 -3 6 C-2.01 4.02 -1.02 2.04 0 0 Z " fill="#212354" transform="translate(412,308)"/>
<path d="M0 0 C2.475 0.495 2.475 0.495 5 1 C4.67 1.99 4.34 2.98 4 4 C2.68 4 1.36 4 0 4 C0 2.68 0 1.36 0 0 Z " fill="#E6EDF8" transform="translate(254,307)"/>
<path d="M0 0 C1.32 0.66 2.64 1.32 4 2 C3.01 3.485 3.01 3.485 2 5 C0.68 4.67 -0.64 4.34 -2 4 C-2 3.34 -2 2.68 -2 2 C-1.34 2 -0.68 2 0 2 C0 1.34 0 0.68 0 0 Z " fill="#F1F2F0" transform="translate(406,304)"/>
<path d="M0 0 C1.32 0.66 2.64 1.32 4 2 C3.34 3.65 2.68 5.3 2 7 C0.4375 5.75 0.4375 5.75 -1 4 C-0.6875 1.8125 -0.6875 1.8125 0 0 Z " fill="#EEEFF4" transform="translate(274,221)"/>
<path d="M0 0 C0.33 0 0.66 0 1 0 C1 1.65 1 3.3 1 5 C0.34 5 -0.32 5 -1 5 C-1.33 6.65 -1.66 8.3 -2 10 C-2.99 9.34 -3.98 8.68 -5 8 C-5 7.34 -5 6.68 -5 6 C-4.360625 5.525625 -3.72125 5.05125 -3.0625 4.5625 C-0.71627037 3.0908635 -0.71627037 3.0908635 0 0 Z " fill="#E3E6EE" transform="translate(233,211)"/>
<path d="M0 0 C0.66 0.33 1.32 0.66 2 1 C1.6875 2.9375 1.6875 2.9375 1 5 C0.01 5.33 -0.98 5.66 -2 6 C-2.33 5.01 -2.66 4.02 -3 3 C-2.01 2.01 -1.02 1.02 0 0 Z " fill="#F7F9F9" transform="translate(260,147)"/>
<path d="M0 0 C5.66153846 1.47692308 5.66153846 1.47692308 7.375 4.125 C7.684375 5.053125 7.684375 5.053125 8 6 C6.68 5.67 5.36 5.34 4 5 C4 4.34 4 3.68 4 3 C2.68 2.67 1.36 2.34 0 2 C0 1.34 0 0.68 0 0 Z " fill="#080B3A" transform="translate(268,135)"/>
<path d="M0 0 C2.125 0.375 2.125 0.375 4 1 C2.68 2.32 1.36 3.64 0 5 C-0.66 4.01 -1.32 3.02 -2 2 C-1.34 1.34 -0.68 0.68 0 0 Z " fill="#1A1E40" transform="translate(319,316)"/>
<path d="M0 0 C0.66 0.33 1.32 0.66 2 1 C0.68 3.64 -0.64 6.28 -2 9 C-2.66 8.01 -3.32 7.02 -4 6 C-2.68 4.02 -1.36 2.04 0 0 Z " fill="#E9EAFB" transform="translate(412,305)"/>
<path d="M0 0 C0.99 0 1.98 0 3 0 C3 1.98 3 3.96 3 6 C2.34 6 1.68 6 1 6 C-0.0625 4.125 -0.0625 4.125 -1 2 C-0.67 1.34 -0.34 0.68 0 0 Z " fill="#F5F5FD" transform="translate(188,308)"/>
<path d="M0 0 C4 4.625 4 4.625 4 8 C2.35 6.68 0.7 5.36 -1 4 C-0.67 2.68 -0.34 1.36 0 0 Z " fill="#161B44" transform="translate(277,231)"/>
<path d="M0 0 C0.99 0.33 1.98 0.66 3 1 C2.34 2.98 1.68 4.96 1 7 C-0.0625 5.1875 -0.0625 5.1875 -1 3 C-0.67 2.01 -0.34 1.02 0 0 Z " fill="#13153E" transform="translate(231,208)"/>
<path d="M0 0 C1.98 0 3.96 0 6 0 C4.35 1.65 2.7 3.3 1 5 C0.67 3.35 0.34 1.7 0 0 Z " fill="#1A1D43" transform="translate(277,192)"/>
</svg>
