<svg xmlns="http://www.w3.org/2000/svg" width="1080" height="1080" viewBox="0 0 1080 1080" role="img">
  <defs>
    <radialGradient id="glow" cx="0.5" cy="0.42" r="0.72">
      <stop offset="0%" stop-color="#146389"/>
      <stop offset="70%" stop-color="#03084C"/>
      <stop offset="100%" stop-color="#01062F"/>
    </radialGradient></defs>

  <rect width="1080" height="1080" fill="url(#glow)"/>
  <g transform="translate(540 470)"><rect x="-3" y="-620" width="6" height="620" fill="#FFFFFF" fill-opacity="0.05" transform="rotate(0)"/><rect x="-3" y="-620" width="6" height="620" fill="#FFFFFF" fill-opacity="0.05" transform="rotate(22.5)"/><rect x="-3" y="-620" width="6" height="620" fill="#FFFFFF" fill-opacity="0.05" transform="rotate(45)"/><rect x="-3" y="-620" width="6" height="620" fill="#FFFFFF" fill-opacity="0.05" transform="rotate(67.5)"/><rect x="-3" y="-620" width="6" height="620" fill="#FFFFFF" fill-opacity="0.05" transform="rotate(90)"/><rect x="-3" y="-620" width="6" height="620" fill="#FFFFFF" fill-opacity="0.05" transform="rotate(112.5)"/><rect x="-3" y="-620" width="6" height="620" fill="#FFFFFF" fill-opacity="0.05" transform="rotate(135)"/><rect x="-3" y="-620" width="6" height="620" fill="#FFFFFF" fill-opacity="0.05" transform="rotate(157.5)"/><rect x="-3" y="-620" width="6" height="620" fill="#FFFFFF" fill-opacity="0.05" transform="rotate(180)"/><rect x="-3" y="-620" width="6" height="620" fill="#FFFFFF" fill-opacity="0.05" transform="rotate(202.5)"/><rect x="-3" y="-620" width="6" height="620" fill="#FFFFFF" fill-opacity="0.05" transform="rotate(225)"/><rect x="-3" y="-620" width="6" height="620" fill="#FFFFFF" fill-opacity="0.05" transform="rotate(247.5)"/><rect x="-3" y="-620" width="6" height="620" fill="#FFFFFF" fill-opacity="0.05" transform="rotate(270)"/><rect x="-3" y="-620" width="6" height="620" fill="#FFFFFF" fill-opacity="0.05" transform="rotate(292.5)"/><rect x="-3" y="-620" width="6" height="620" fill="#FFFFFF" fill-opacity="0.05" transform="rotate(315)"/><rect x="-3" y="-620" width="6" height="620" fill="#FFFFFF" fill-opacity="0.05" transform="rotate(337.5)"/></g>

  <!-- Border, inset to the safe area so a story crop never clips it. -->
  <rect x="48" y="48" width="984" height="984" rx="18"
        fill="none" stroke="#FF9800" stroke-opacity="0.55" stroke-width="3"/>

  
    <g transform="translate(908 76)">
      <circle cx="38" cy="38" r="38" fill="none" stroke="#FFFFFF" stroke-opacity="0.9" stroke-width="2.5"/>
      <text x="38" y="38" dy="0.36em" font-family="Montserrat, 'Segoe UI', system-ui, sans-serif" font-size="39.52" font-weight="700" fill="#FFFFFF" text-anchor="middle">R</text>
    </g>

  <text x="540" y="352" font-family="Montserrat, 'Segoe UI', system-ui, sans-serif" font-size="30" font-weight="600" fill="#FF9800" text-anchor="middle" letter-spacing="7">DEEPAVALI</text>

  <!-- The headline. Wrapped rather than fixed at one line: "Happy Ganesh
       Chaturthi" is twice the width of "Happy Ugadi" and would otherwise run
       off both edges. -->
  <text x="540" y="470" font-family="Montserrat, 'Segoe UI', system-ui, sans-serif" font-size="92" font-weight="700" fill="#FFFFFF" text-anchor="middle"><tspan x="540" dy="0">Happy Deepavali</tspan></text>

  <rect x="450" y="518" width="180" height="3" fill="#FF9800" fill-opacity="0.8"/>

  <text x="540" y="592" font-family="Montserrat, 'Segoe UI', system-ui, sans-serif" font-size="32" font-weight="400" fill="#FFFFFF" text-anchor="middle"><tspan x="540" dy="0">May this year bring you light, and the</tspan><tspan x="540" dy="48.0">courage to start something new.</tspan></text>

  
    <g transform="translate(96.0 870)">
      <path d="M -26 0 Q 0 34 26 0 Z" fill="#FF9800" fill-opacity="0.9"/>
      <ellipse cx="0" cy="0" rx="26" ry="6" fill="#FF9800"/>
      <path d="M 0 -4 Q -9 -20 0 -30 Q 9 -20 0 -4 Z" fill="#FFFFFF" fill-opacity="0.95"/>
      <path d="M 0 -8 Q -5 -18 0 -24 Q 5 -18 0 -8 Z" fill="#FF9800"/>
    </g>
    <g transform="translate(244.0 844)">
      <path d="M -26 0 Q 0 34 26 0 Z" fill="#FF9800" fill-opacity="0.9"/>
      <ellipse cx="0" cy="0" rx="26" ry="6" fill="#FF9800"/>
      <path d="M 0 -4 Q -9 -20 0 -30 Q 9 -20 0 -4 Z" fill="#FFFFFF" fill-opacity="0.95"/>
      <path d="M 0 -8 Q -5 -18 0 -24 Q 5 -18 0 -8 Z" fill="#FF9800"/>
    </g>
    <g transform="translate(392.0 870)">
      <path d="M -26 0 Q 0 34 26 0 Z" fill="#FF9800" fill-opacity="0.9"/>
      <ellipse cx="0" cy="0" rx="26" ry="6" fill="#FF9800"/>
      <path d="M 0 -4 Q -9 -20 0 -30 Q 9 -20 0 -4 Z" fill="#FFFFFF" fill-opacity="0.95"/>
      <path d="M 0 -8 Q -5 -18 0 -24 Q 5 -18 0 -8 Z" fill="#FF9800"/>
    </g>
    <g transform="translate(540.0 844)">
      <path d="M -26 0 Q 0 34 26 0 Z" fill="#FF9800" fill-opacity="0.9"/>
      <ellipse cx="0" cy="0" rx="26" ry="6" fill="#FF9800"/>
      <path d="M 0 -4 Q -9 -20 0 -30 Q 9 -20 0 -4 Z" fill="#FFFFFF" fill-opacity="0.95"/>
      <path d="M 0 -8 Q -5 -18 0 -24 Q 5 -18 0 -8 Z" fill="#FF9800"/>
    </g>
    <g transform="translate(688.0 870)">
      <path d="M -26 0 Q 0 34 26 0 Z" fill="#FF9800" fill-opacity="0.9"/>
      <ellipse cx="0" cy="0" rx="26" ry="6" fill="#FF9800"/>
      <path d="M 0 -4 Q -9 -20 0 -30 Q 9 -20 0 -4 Z" fill="#FFFFFF" fill-opacity="0.95"/>
      <path d="M 0 -8 Q -5 -18 0 -24 Q 5 -18 0 -8 Z" fill="#FF9800"/>
    </g>
    <g transform="translate(836.0 844)">
      <path d="M -26 0 Q 0 34 26 0 Z" fill="#FF9800" fill-opacity="0.9"/>
      <ellipse cx="0" cy="0" rx="26" ry="6" fill="#FF9800"/>
      <path d="M 0 -4 Q -9 -20 0 -30 Q 9 -20 0 -4 Z" fill="#FFFFFF" fill-opacity="0.95"/>
      <path d="M 0 -8 Q -5 -18 0 -24 Q 5 -18 0 -8 Z" fill="#FF9800"/>
    </g>
    <g transform="translate(984.0 870)">
      <path d="M -26 0 Q 0 34 26 0 Z" fill="#FF9800" fill-opacity="0.9"/>
      <ellipse cx="0" cy="0" rx="26" ry="6" fill="#FF9800"/>
      <path d="M 0 -4 Q -9 -20 0 -30 Q 9 -20 0 -4 Z" fill="#FFFFFF" fill-opacity="0.95"/>
      <path d="M 0 -8 Q -5 -18 0 -24 Q 5 -18 0 -8 Z" fill="#FF9800"/>
    </g>

  <text x="96" y="998" font-family="Montserrat, 'Segoe UI', system-ui, sans-serif" font-size="27" font-weight="600" fill="#FFFFFF" fill-opacity="0.85">Rest Coder Academy</text>
  <text x="984" y="998" font-family="Montserrat, 'Segoe UI', system-ui, sans-serif" font-size="27" font-weight="600" fill="#FFFFFF" fill-opacity="0.92" text-anchor="end" letter-spacing="0.4">restcoderacademy.in</text>
</svg>
